<?xml version="1.0" encoding="utf-8"?>
<!DOCTYPE svg PUBLIC "-//W3C//DTD SVG 20010904//EN" "http://www.w3.org/TR/2001/REC-SVG-20010904/DTD/svg10.dtd">
<svg version="1.0" xmlns="http://www.w3.org/2000/svg" width="602pt" height="602pt" viewBox="0 0 602 602" style="" preserveAspectRatio="xMidYMid meet">
<g fill="#E6E6E6FF" stroke="#E6E6E6FF">
<path d="M 0.000 301.000 L 0.000 602.000 301.000 602.000 L 602.000 602.000 602.000 301.000 L 602.000 0.000 301.000 0.000 L 0.000 0.000 0.000 301.000 M 479.791 221.091 C 487.316 222.183 564.512 221.712 567.789 220.555 L 570.078 219.746 569.789 229.123 C 569.543 237.122 569.332 238.126 568.354 235.959 C 566.833 232.585 565.390 231.517 559.832 229.649 C 553.551 227.537 530.149 227.157 528.888 229.146 C 527.902 230.702 527.867 321.722 528.849 329.965 C 529.417 334.735 529.932 335.721 532.898 337.715 C 536.234 339.958 536.802 340.000 564.008 340.000 C 596.065 340.000 601.000 340.418 601.000 343.136 C 601.000 344.161 600.438 345.015 599.750 345.033 C 593.652 345.195 544.685 348.112 534.500 348.921 C 527.350 349.489 510.783 350.666 497.684 351.537 C 484.585 352.407 466.360 354.011 457.184 355.100 C 448.008 356.189 436.900 357.491 432.500 357.993 C 411.536 360.387 395.985 362.667 371.500 366.938 C 357.003 369.467 324.857 375.768 320.000 377.032 C 318.075 377.534 307.950 379.985 297.500 382.480 C 276.706 387.444 272.725 388.459 266.000 390.512 C 263.525 391.267 258.575 392.629 255.000 393.537 C 251.425 394.445 247.600 395.561 246.500 396.017 C 245.400 396.474 241.800 397.601 238.500 398.523 C 227.925 401.476 179.518 417.373 179.000 418.062 C 178.725 418.428 176.250 419.421 173.500 420.269 C 165.752 422.658 153.229 427.358 145.332 430.840 C 141.390 432.578 137.479 434.000 136.641 434.000 C 135.804 434.000 134.871 434.400 134.568 434.889 C 134.266 435.378 132.809 436.082 131.331 436.453 C 128.261 437.224 115.805 442.551 105.500 447.500 C 101.650 449.350 96.258 451.815 93.517 452.978 C 89.660 454.616 88.869 455.306 90.017 456.032 C 91.041 456.679 89.721 456.974 85.750 456.985 C 82.360 456.994 80.000 456.565 80.000 455.941 C 80.000 455.359 80.458 455.165 81.018 455.511 C 81.579 455.858 93.391 450.529 107.268 443.670 C 135.723 429.607 145.645 424.899 152.660 422.134 C 155.329 421.082 161.109 418.554 165.506 416.516 C 169.903 414.477 175.300 412.127 177.500 411.293 C 179.700 410.459 187.575 407.405 195.000 404.507 C 202.425 401.608 210.075 398.682 212.000 398.004 C 213.925 397.326 221.800 394.540 229.500 391.812 C 237.200 389.084 246.200 386.029 249.500 385.023 C 252.800 384.018 258.650 382.052 262.500 380.654 C 268.726 378.395 275.627 376.412 280.000 375.628 C 280.825 375.480 282.175 375.089 283.000 374.759 C 285.212 373.876 302.941 368.880 307.000 367.996 C 308.925 367.577 313.200 366.463 316.500 365.521 C 324.878 363.128 328.672 362.272 343.500 359.432 C 347.900 358.589 352.850 357.498 354.500 357.007 C 361.358 354.966 397.033 348.833 415.000 346.606 C 439.825 343.530 467.853 341.081 485.500 340.447 C 495.400 340.091 504.326 339.358 505.335 338.819 C 509.736 336.467 509.939 333.980 510.047 280.849 C 510.103 253.157 510.115 229.938 510.074 229.250 C 510.019 228.311 506.450 228.003 495.750 228.011 C 476.550 228.026 474.629 228.422 469.895 233.349 C 466.040 237.361 466.000 237.376 466.000 234.760 C 466.000 233.307 466.450 231.840 467.000 231.500 C 467.550 231.160 468.003 229.896 468.006 228.691 C 468.009 227.486 468.490 224.776 469.075 222.670 C 469.907 219.671 470.504 218.985 471.819 219.509 C 472.744 219.877 476.331 220.589 479.791 221.091 M 61.784 241.887 C 67.440 247.724 80.267 260.825 90.287 271.000 C 100.308 281.175 112.570 293.921 117.536 299.325 C 122.503 304.729 127.452 309.229 128.533 309.325 C 130.389 309.490 130.500 308.825 130.500 297.500 C 130.500 290.900 130.228 273.099 129.897 257.942 C 129.235 227.726 128.853 225.678 123.370 222.936 C 120.387 221.444 120.862 221.377 133.682 221.485 C 145.612 221.585 146.836 221.750 144.587 222.953 C 143.193 223.699 141.624 225.702 141.100 227.405 C 140.182 230.388 138.571 278.724 138.497 305.500 C 138.419 333.907 138.083 340.000 136.596 340.000 C 135.269 340.000 79.711 284.652 63.867 267.546 C 48.762 251.237 48.035 250.565 46.818 251.782 C 45.961 252.639 45.924 262.470 46.670 290.714 C 47.490 321.737 47.959 329.174 49.289 332.264 C 50.180 334.334 51.605 336.295 52.455 336.621 C 56.041 337.997 53.352 338.537 43.001 338.519 C 36.952 338.509 32.002 338.304 32.001 338.064 C 32.001 337.825 32.997 336.567 34.217 335.270 C 36.403 332.942 36.443 332.368 37.142 292.705 C 38.059 240.752 38.695 221.303 39.519 219.969 C 39.910 219.336 42.520 221.447 45.843 225.083 C 48.954 228.488 56.128 236.050 61.784 241.887 M 261.205 221.871 C 261.592 221.942 260.805 223.105 259.455 224.455 L 257.000 226.909 257.000 277.605 C 257.000 332.561 256.518 338.708 251.369 349.437 C 248.743 354.910 248.425 356.474 250.155 355.405 C 250.876 354.959 251.037 355.131 250.585 355.862 C 250.187 356.506 249.475 356.793 249.002 356.501 C 248.529 356.209 245.747 358.507 242.821 361.609 C 237.249 367.514 226.277 375.610 225.245 374.578 C 224.914 374.248 226.070 372.582 227.814 370.878 C 232.191 366.598 236.632 356.849 237.994 348.531 C 238.742 343.963 239.131 324.321 239.123 291.531 C 239.106 219.606 239.316 226.251 237.000 224.268 C 235.900 223.326 235.000 222.318 235.000 222.028 C 235.000 221.593 258.908 221.449 261.205 221.871 M 379.866 224.144 L 377.000 226.770 377.015 278.635 C 377.030 334.074 377.041 334.196 382.020 336.716 C 383.384 337.406 384.050 337.997 383.500 338.029 C 381.501 338.145 359.438 338.210 357.179 338.107 C 355.093 338.011 355.013 337.844 356.389 336.468 C 357.232 335.625 358.277 333.263 358.711 331.218 C 359.691 326.598 359.765 230.435 358.791 227.000 C 358.401 225.625 356.911 223.793 355.481 222.929 C 353.045 221.456 353.820 221.362 367.806 221.438 L 382.732 221.518 379.866 224.144 M 508.495 275.250 L 508.489 321.000 508.245 275.566 L 508.000 230.133 505.750 229.720 C 503.792 229.361 503.825 229.320 506.000 229.404 L 508.500 229.500 508.495 275.250 M 534.250 229.732 L 530.000 230.115 529.762 271.807 L 529.523 313.500 529.250 272.501 C 529.100 249.952 529.193 230.939 529.457 230.251 C 529.754 229.478 531.573 229.067 534.219 229.175 L 538.500 229.349 534.250 229.732 M 90.000 268.000 L 73.000 251.000 90.000 268.000 L 107.000 285.000 90.000 268.000 M 150.668 219.738 C 151.676 220.143 149.575 220.324 146.000 220.139 C 142.425 219.954 139.313 219.622 139.083 219.401 C 138.332 218.678 148.791 218.982 150.668 219.738 M 121.000 300.000 L 115.000 294.000 121.000 300.000 L 127.000 306.000 121.000 300.000 M 70.500 277.500 L 65.000 272.000 70.500 277.500 L 76.000 283.000 70.500 277.500 "/></g>
<g fill="#CE2027FF" stroke="#CE2027FF">
<path d="M 469.075 222.670 C 468.490 224.776 468.009 227.486 468.006 228.691 C 468.003 229.896 467.550 231.160 467.000 231.500 C 466.450 231.840 466.000 233.307 466.000 234.760 C 466.000 237.376 466.040 237.361 469.895 233.349 C 474.629 228.422 476.550 228.026 495.750 228.011 C 506.450 228.003 510.019 228.311 510.074 229.250 C 510.115 229.938 510.103 253.157 510.047 280.849 C 509.939 333.980 509.736 336.467 505.335 338.819 C 504.326 339.358 495.400 340.091 485.500 340.447 C 467.853 341.081 439.825 343.530 415.000 346.606 C 397.033 348.833 361.358 354.966 354.500 357.007 C 352.850 357.498 347.900 358.589 343.500 359.432 C 328.672 362.272 324.878 363.128 316.500 365.521 C 313.200 366.463 308.925 367.577 307.000 367.996 C 302.941 368.880 285.212 373.876 283.000 374.759 C 282.175 375.089 280.825 375.480 280.000 375.628 C 275.627 376.412 268.726 378.395 262.500 380.654 C 258.650 382.052 252.800 384.018 249.500 385.023 C 246.200 386.029 237.200 389.084 229.500 391.812 C 221.800 394.540 213.925 397.326 212.000 398.004 C 210.075 398.682 202.425 401.608 195.000 404.507 C 187.575 407.405 179.700 410.459 177.500 411.293 C 175.300 412.127 169.903 414.477 165.506 416.516 C 161.109 418.554 155.329 421.082 152.660 422.134 C 138.379 427.763 83.126 455.345 85.250 455.785 C 86.916 456.129 89.289 455.154 105.500 447.460 C 116.266 442.351 128.352 437.201 131.331 436.453 C 132.809 436.082 134.266 435.378 134.568 434.889 C 134.871 434.400 135.804 434.000 136.641 434.000 C 137.479 434.000 141.390 432.578 145.332 430.840 C 153.229 427.358 165.752 422.658 173.500 420.269 C 176.250 419.421 178.725 418.428 179.000 418.062 C 179.518 417.373 227.925 401.476 238.500 398.523 C 241.800 397.601 245.400 396.474 246.500 396.017 C 247.600 395.561 251.425 394.445 255.000 393.537 C 258.575 392.629 263.525 391.267 266.000 390.512 C 272.725 388.459 276.706 387.444 297.500 382.480 C 307.950 379.985 318.075 377.534 320.000 377.032 C 324.857 375.768 357.003 369.467 371.500 366.938 C 395.985 362.667 411.536 360.387 432.500 357.993 C 436.900 357.491 448.008 356.189 457.184 355.100 C 466.360 354.011 484.585 352.407 497.684 351.537 C 510.783 350.666 527.350 349.489 534.500 348.921 C 544.685 348.112 593.652 345.195 599.750 345.033 C 600.438 345.015 601.000 344.161 601.000 343.136 C 601.000 340.418 596.065 340.000 564.008 340.000 C 536.802 340.000 536.234 339.958 532.898 337.715 C 529.932 335.721 529.417 334.735 528.849 329.965 C 527.867 321.722 527.902 230.702 528.888 229.146 C 530.149 227.157 553.551 227.537 559.832 229.649 C 565.390 231.517 566.833 232.585 568.354 235.959 C 569.332 238.126 569.543 237.122 569.789 229.123 L 570.078 219.746 567.789 220.555 C 566.530 221.000 547.631 221.508 525.791 221.683 C 489.815 221.973 476.678 221.444 471.819 219.509 C 470.504 218.985 469.907 219.671 469.075 222.670 "/></g>
<g fill="#CE2027FF" stroke="#CE2027FF">
<path d="M 39.519 219.969 C 38.695 221.303 38.059 240.752 37.142 292.705 C 36.443 332.368 36.403 332.942 34.217 335.270 C 32.997 336.567 32.001 337.825 32.001 338.064 C 32.002 338.304 36.952 338.509 43.001 338.519 C 53.352 338.537 56.041 337.997 52.455 336.621 C 51.605 336.295 50.180 334.334 49.289 332.264 C 47.959 329.174 47.490 321.737 46.670 290.714 C 45.924 262.470 45.961 252.639 46.818 251.782 C 48.035 250.565 48.762 251.237 63.867 267.546 C 79.711 284.652 135.269 340.000 136.596 340.000 C 138.083 340.000 138.419 333.907 138.497 305.500 C 138.571 278.724 140.182 230.388 141.100 227.405 C 141.624 225.702 143.193 223.699 144.587 222.953 C 146.836 221.750 145.612 221.585 133.682 221.485 C 120.862 221.377 120.387 221.444 123.370 222.936 C 128.853 225.678 129.235 227.726 129.897 257.942 C 130.228 273.099 130.500 290.900 130.500 297.500 C 130.500 308.825 130.389 309.490 128.533 309.325 C 127.452 309.229 122.503 304.729 117.536 299.325 C 112.570 293.921 100.308 281.175 90.287 271.000 C 66.320 246.664 52.772 232.666 45.843 225.083 C 42.520 221.447 39.910 219.336 39.519 219.969 "/></g>
<g fill="#CE2027FF" stroke="#CE2027FF">
<path d="M 235.000 222.028 C 235.000 222.318 235.900 223.326 237.000 224.268 C 239.316 226.251 239.106 219.606 239.123 291.531 C 239.131 324.321 238.742 343.963 237.994 348.531 C 236.632 356.849 232.191 366.598 227.814 370.878 C 223.057 375.529 225.085 375.699 231.673 371.201 C 239.682 365.733 248.089 356.586 251.161 350.000 C 256.554 338.437 257.000 332.912 257.000 277.605 L 257.000 226.909 259.455 224.455 C 260.805 223.105 261.592 221.942 261.205 221.871 C 258.908 221.449 235.000 221.593 235.000 222.028 "/></g>
<g fill="#CE2027FF" stroke="#CE2027FF">
<path d="M 355.481 222.929 C 356.911 223.793 358.401 225.625 358.791 227.000 C 359.765 230.435 359.691 326.598 358.711 331.218 C 358.277 333.263 357.232 335.625 356.389 336.468 C 355.013 337.844 355.093 338.011 357.179 338.107 C 359.438 338.210 381.501 338.145 383.500 338.029 C 384.050 337.997 383.384 337.406 382.020 336.716 C 377.041 334.196 377.030 334.074 377.015 278.635 L 377.000 226.770 379.866 224.144 L 382.732 221.518 367.806 221.438 C 353.820 221.362 353.045 221.456 355.481 222.929 "/></g>
<g fill="#E6C4C3FF" stroke="#E6C4C3FF">
<path d="M 505.750 229.720 L 508.000 230.133 508.245 275.566 L 508.489 321.000 508.495 275.250 L 508.500 229.500 506.000 229.404 C 503.825 229.320 503.792 229.361 505.750 229.720 "/></g>
<g fill="#E6C4C3FF" stroke="#E6C4C3FF">
<path d="M 529.457 230.251 C 529.193 230.939 529.100 249.952 529.250 272.501 L 529.523 313.500 529.762 271.807 L 530.000 230.115 534.250 229.732 L 538.500 229.349 534.219 229.175 C 531.573 229.067 529.754 229.478 529.457 230.251 "/></g>
<g fill="#E6C4C3FF" stroke="#E6C4C3FF">
<path d="M 90.000 268.000 L 107.000 285.000 90.000 268.000 L 73.000 251.000 90.000 268.000 "/></g>
<g fill="#E6C4C3FF" stroke="#E6C4C3FF">
<path d="M 80.000 456.238 C 80.000 456.657 82.588 456.934 85.750 456.853 L 91.500 456.706 85.750 456.091 C 82.588 455.753 80.000 455.819 80.000 456.238 "/></g>
<g fill="#E6C4C3FF" stroke="#E6C4C3FF">
<path d="M 121.000 300.000 L 127.000 306.000 121.000 300.000 L 115.000 294.000 121.000 300.000 "/></g>
<g fill="#E6C4C3FF" stroke="#E6C4C3FF">
<path d="M 70.500 277.500 L 76.000 283.000 70.500 277.500 L 65.000 272.000 70.500 277.500 "/></g>
</svg>
