<?xml version="1.0" encoding="utf-8"?>
<!DOCTYPE svg PUBLIC "-//W3C//DTD SVG 20010904//EN" "http://www.w3.org/TR/2001/REC-SVG-20010904/DTD/svg10.dtd">
<svg version="1.0" xmlns="http://www.w3.org/2000/svg" width="602pt" height="602pt" viewBox="0 0 602 602" style="" preserveAspectRatio="xMidYMid meet">
<g fill="#003F88FF" stroke="#003F88FF">
<path d="M 275.000 1.976 C 244.649 4.919 211.299 13.049 188.000 23.187 C 185.525 24.263 181.925 25.827 180.000 26.661 C 156.762 36.731 129.242 53.902 108.000 71.586 C 103.371 75.440 76.391 102.407 72.069 107.500 C 63.445 117.662 48.742 138.213 43.809 147.000 C 42.420 149.475 40.251 153.300 38.990 155.500 C 25.494 179.047 12.663 213.507 7.341 240.500 C -0.436 279.948 -0.562 321.476 6.980 359.000 C 13.372 390.798 24.141 419.512 41.109 450.000 C 43.216 453.787 52.353 468.430 52.964 469.000 C 53.259 469.275 55.039 471.750 56.920 474.500 C 60.413 479.607 69.090 490.717 74.491 496.999 C 78.516 501.680 99.603 522.786 104.000 526.534 C 111.983 533.340 122.818 541.894 127.500 545.089 C 130.250 546.965 132.725 548.762 133.000 549.081 C 133.275 549.401 139.151 553.055 146.057 557.202 C 158.395 564.610 176.156 573.641 187.000 578.019 C 190.025 579.240 193.850 580.820 195.500 581.530 C 204.457 585.384 226.236 591.619 241.000 594.557 C 292.857 604.875 348.265 601.573 396.000 585.320 C 403.369 582.810 423.668 574.707 426.869 572.997 C 427.766 572.518 430.750 571.085 433.500 569.813 C 436.250 568.541 438.650 567.163 438.833 566.750 C 439.017 566.338 439.593 566.000 440.114 566.000 C 440.932 566.000 444.204 564.242 457.000 556.929 C 458.375 556.143 459.725 555.251 460.000 554.947 C 460.275 554.643 462.300 553.317 464.500 552.000 C 466.700 550.683 468.725 549.356 469.000 549.050 C 469.275 548.744 471.525 547.154 474.000 545.515 C 488.952 535.614 509.973 516.859 524.528 500.432 C 537.086 486.259 554.000 463.634 554.000 461.007 C 554.000 460.453 554.378 460.000 554.839 460.000 C 555.301 460.000 556.183 458.988 556.799 457.750 C 557.416 456.513 559.570 452.575 561.586 449.000 C 567.170 439.098 573.583 426.229 576.536 419.000 C 577.996 415.425 579.794 411.150 580.531 409.500 C 583.343 403.204 589.987 382.063 592.316 372.000 C 597.677 348.836 598.462 343.484 600.198 318.204 C 603.095 276.027 594.719 224.256 579.292 189.000 C 577.969 185.975 576.506 182.600 576.041 181.500 C 569.475 165.965 551.323 133.770 545.522 127.373 C 544.960 126.752 543.825 125.242 543.000 124.015 C 533.776 110.304 506.918 81.752 492.500 70.332 C 483.192 62.959 481.184 61.398 478.561 59.500 C 477.041 58.400 473.931 56.115 471.649 54.421 C 463.921 48.687 444.535 37.323 433.490 32.053 C 427.446 29.168 421.375 26.224 420.000 25.509 C 416.777 23.834 393.009 15.179 386.500 13.310 C 371.417 8.981 360.700 6.685 342.500 3.885 C 327.880 1.636 289.661 0.555 275.000 1.976 M 333.500 14.921 C 339.000 15.554 346.650 16.740 350.500 17.556 C 354.350 18.372 359.975 19.515 363.000 20.096 C 373.390 22.092 397.667 29.438 408.500 33.864 C 414.863 36.464 449.291 53.861 449.925 54.797 C 450.241 55.264 451.175 55.948 452.000 56.317 C 453.717 57.084 457.258 59.258 458.000 60.000 C 458.275 60.275 461.425 62.502 465.000 64.949 C 484.725 78.449 510.494 102.468 525.136 121.000 C 533.538 131.634 546.000 149.500 546.000 150.912 C 546.000 151.419 546.338 151.983 546.750 152.167 C 547.968 152.708 550.613 157.564 558.916 174.500 C 568.137 193.310 570.000 197.414 570.000 198.915 C 570.000 199.527 570.431 200.809 570.957 201.764 C 573.893 207.088 581.144 233.334 584.422 250.500 C 589.609 277.662 589.832 322.549 584.907 348.000 C 578.635 380.406 572.695 398.968 560.267 425.000 C 542.572 462.061 517.026 494.641 483.440 522.981 C 462.419 540.719 432.042 558.559 406.000 568.463 C 382.119 577.544 372.552 580.193 346.500 584.936 C 338.306 586.428 309.534 589.000 301.041 589.000 C 292.767 589.000 262.363 586.322 256.000 585.032 C 253.525 584.531 249.700 583.839 247.500 583.494 C 238.253 582.046 218.553 576.589 205.500 571.860 C 171.407 559.510 145.644 544.916 117.534 522.030 C 112.629 518.036 82.638 487.861 79.239 483.500 C 77.524 481.300 74.163 477.025 71.769 474.000 C 57.425 455.873 43.285 430.556 33.510 405.500 C 27.132 389.153 26.942 388.629 25.998 384.835 C 25.542 383.001 24.268 378.350 23.166 374.500 C 22.065 370.650 20.687 365.025 20.104 362.000 C 19.522 358.975 18.410 353.575 17.633 350.000 C 15.188 338.746 12.696 306.554 13.299 294.018 C 14.078 277.819 15.836 260.716 17.566 252.500 C 18.377 248.650 19.515 243.025 20.096 240.000 C 22.355 228.240 29.627 204.452 34.158 194.000 C 35.231 191.525 36.482 188.600 36.939 187.500 C 40.453 179.027 50.971 158.733 56.116 150.500 C 85.596 103.321 127.099 65.858 175.972 42.309 C 184.512 38.194 192.281 34.416 193.236 33.914 C 194.191 33.411 195.473 33.000 196.085 33.000 C 196.697 33.000 198.616 32.365 200.349 31.588 C 207.453 28.405 228.859 22.042 239.000 20.099 C 242.025 19.519 247.513 18.389 251.195 17.586 C 254.878 16.784 263.428 15.599 270.195 14.954 C 276.963 14.309 282.725 13.563 283.000 13.297 C 283.868 12.457 323.052 13.718 333.500 14.921 "/></g>
<g fill="#FFFFFFFF" stroke="#FFFFFFFF">
<path d="M 274.917 14.401 C 274.688 14.622 270.675 15.304 266.000 15.917 C 255.622 17.277 243.524 19.457 235.500 21.411 C 222.290 24.630 220.165 25.222 211.500 28.102 C 185.723 36.670 160.547 49.255 138.074 64.806 C 133.990 67.633 129.715 70.751 128.574 71.737 C 127.433 72.722 125.082 74.533 123.349 75.761 C 112.694 83.314 83.189 112.827 75.774 123.349 C 74.553 125.082 72.752 127.375 71.771 128.445 C 69.992 130.386 59.780 145.462 54.460 154.000 C 49.976 161.198 40.649 179.730 36.594 189.500 C 34.539 194.450 32.472 199.400 32.001 200.500 C 27.823 210.242 20.314 238.558 17.945 253.500 C 14.849 273.036 14.016 283.021 14.008 300.709 C 14.000 319.345 14.401 324.388 17.571 345.500 C 20.624 365.840 28.777 395.395 34.949 408.500 C 35.467 409.600 36.849 412.750 38.020 415.500 C 40.012 420.180 44.617 429.569 50.035 440.000 C 52.336 444.429 67.904 468.619 70.531 471.847 C 71.271 472.756 74.034 476.200 76.670 479.500 C 79.307 482.800 82.811 487.075 84.458 489.000 C 89.335 494.702 109.099 514.231 114.500 518.684 C 119.159 522.526 126.529 528.538 130.000 531.329 C 133.507 534.149 154.988 548.029 160.500 551.037 C 169.045 555.700 180.668 561.494 186.500 563.998 C 189.250 565.179 192.918 566.787 194.651 567.572 C 196.384 568.358 198.495 569.000 199.342 569.000 C 200.189 569.000 201.160 569.450 201.500 570.000 C 201.840 570.550 202.811 571.000 203.658 571.000 C 204.505 571.000 206.616 571.612 208.349 572.359 C 214.765 575.126 236.446 580.963 249.554 583.452 C 278.051 588.864 322.359 589.042 350.500 583.859 C 367.947 580.646 398.328 571.842 408.500 567.051 C 409.600 566.533 412.750 565.154 415.500 563.987 C 422.810 560.885 443.787 550.169 448.466 547.146 C 450.685 545.713 453.280 544.082 454.234 543.520 C 458.559 540.976 473.235 530.648 477.158 527.388 C 479.546 525.404 483.750 521.927 486.500 519.661 C 496.076 511.772 511.319 496.425 520.657 485.272 C 539.631 462.611 554.708 438.195 564.977 413.500 C 567.264 408.000 569.528 402.600 570.008 401.500 C 571.439 398.222 576.089 383.909 577.643 378.000 C 578.438 374.975 579.530 370.925 580.068 369.000 C 581.178 365.033 583.556 353.197 584.891 345.000 C 587.600 328.357 588.186 318.255 587.737 296.000 C 587.267 272.789 586.529 264.623 583.395 248.000 C 581.891 240.021 581.121 236.813 577.575 223.750 C 573.676 209.390 567.378 192.481 560.955 179.132 L 557.410 171.765 555.600 175.778 C 554.307 178.645 552.695 180.285 549.951 181.522 C 546.765 182.959 546.336 183.479 547.435 184.578 C 548.163 185.306 549.878 186.182 551.247 186.526 C 553.432 187.074 553.809 187.843 554.338 192.825 C 555.124 200.226 556.346 199.359 533.684 207.488 C 530.513 208.626 529.043 209.669 529.378 210.543 C 529.658 211.273 528.886 213.362 527.662 215.185 C 524.956 219.214 520.893 220.018 517.104 217.275 C 513.968 215.004 510.570 213.669 502.111 211.384 C 495.947 209.719 495.675 209.724 494.357 211.527 C 493.144 213.186 493.347 213.762 496.167 216.673 C 499.009 219.605 499.221 220.219 498.181 222.503 C 496.579 226.019 494.685 226.491 489.888 224.572 L 485.781 222.928 478.094 230.964 C 472.590 236.717 469.713 239.000 467.966 239.000 C 463.898 239.000 449.117 222.550 451.260 220.407 C 451.503 220.164 453.682 220.863 456.101 221.960 C 462.314 224.779 464.090 224.517 468.352 220.151 L 472.111 216.302 469.649 214.690 C 468.295 213.802 463.758 212.178 459.566 211.080 C 455.375 209.983 451.471 208.791 450.890 208.432 C 449.144 207.353 446.000 199.064 446.000 195.540 C 446.000 193.727 446.693 191.669 447.541 190.966 C 448.835 189.892 449.597 190.176 452.291 192.736 C 456.393 196.632 461.193 199.002 472.948 202.934 C 480.780 205.554 483.291 205.983 487.631 205.440 C 491.565 204.949 493.690 205.204 496.183 206.469 C 500.129 208.470 509.470 209.666 510.327 208.280 C 511.669 206.109 497.520 201.407 486.783 200.455 C 480.759 199.921 478.629 199.303 477.072 197.636 C 475.975 196.461 473.710 194.082 472.039 192.349 C 470.367 190.616 469.000 188.881 469.000 188.494 C 469.000 187.247 483.180 189.860 498.880 193.999 L 507.259 196.208 509.534 193.354 C 512.230 189.973 511.889 189.000 508.006 189.000 C 503.901 189.000 500.000 187.307 500.000 185.525 C 500.000 184.536 500.966 183.989 502.750 183.968 C 506.319 183.927 509.000 181.843 509.000 179.108 C 509.000 176.262 511.465 175.404 514.814 177.086 C 516.291 177.829 517.838 178.600 518.250 178.801 C 518.663 179.002 519.000 177.779 519.000 176.083 C 519.000 174.388 519.405 173.000 519.901 173.000 C 520.397 173.000 520.758 171.439 520.704 169.531 C 520.650 167.623 520.936 165.731 521.340 165.326 C 521.744 164.922 525.771 166.397 530.288 168.604 C 538.282 172.510 538.606 172.579 542.500 171.225 C 544.700 170.459 548.637 169.758 551.249 169.667 C 553.861 169.575 555.998 169.242 555.999 168.926 C 556.000 168.610 552.546 162.535 548.324 155.426 C 539.235 140.120 532.672 130.766 521.029 116.523 C 517.912 112.711 489.582 84.350 485.322 80.778 C 458.742 58.488 423.794 39.085 390.500 28.133 C 372.181 22.107 358.587 19.106 331.307 15.065 C 324.637 14.077 275.850 13.503 274.917 14.401 M 332.500 137.415 C 335.800 138.234 340.525 139.395 343.000 139.996 C 351.888 142.153 365.321 147.117 374.974 151.811 C 378.986 153.761 393.258 162.110 394.000 162.941 C 394.275 163.248 396.750 165.054 399.500 166.953 C 410.641 174.646 427.354 191.359 435.047 202.500 C 436.946 205.250 438.752 207.725 439.061 208.000 C 440.230 209.041 447.000 220.808 447.000 221.797 C 447.000 222.367 447.338 222.983 447.750 223.167 C 448.508 223.503 453.000 232.200 453.000 233.330 C 453.000 233.666 454.101 236.347 455.446 239.288 C 462.149 253.942 466.042 273.438 466.672 295.500 C 467.178 313.217 466.605 320.695 463.604 335.500 C 458.731 359.546 447.662 383.136 431.697 403.500 C 424.411 412.794 408.213 429.000 406.210 429.000 C 405.671 429.000 404.505 427.893 403.618 426.540 C 402.018 424.098 402.083 424.002 412.313 413.790 C 424.257 401.867 426.378 399.336 433.510 388.500 C 439.642 379.185 443.719 371.703 446.863 364.000 C 448.097 360.975 449.485 357.600 449.948 356.500 C 464.627 321.577 462.959 272.153 445.857 235.250 C 443.168 229.446 441.000 227.237 441.000 230.300 C 441.000 232.462 431.032 242.943 427.038 244.981 C 420.900 248.112 410.571 250.000 399.579 250.000 L 389.283 250.000 387.257 255.500 L 385.231 261.000 403.615 261.000 C 413.727 261.000 422.000 261.243 422.000 261.540 C 422.000 263.457 417.395 270.447 413.692 274.150 C 407.521 280.321 401.632 282.000 386.162 282.000 C 377.118 282.000 373.991 282.320 373.964 283.250 C 373.945 283.938 372.873 286.750 371.584 289.500 L 369.239 294.500 373.369 295.176 C 375.641 295.548 382.070 295.885 387.656 295.926 L 397.813 296.000 396.739 299.500 C 396.148 301.425 395.290 303.000 394.832 303.000 C 394.374 303.000 394.000 303.637 394.000 304.415 C 394.000 305.193 391.945 307.639 389.433 309.850 C 384.261 314.403 375.500 316.999 365.303 317.001 L 359.500 317.002 357.362 322.251 L 355.225 327.500 366.612 327.782 C 372.876 327.937 378.000 328.485 378.000 329.000 C 378.000 330.820 369.522 342.262 366.532 344.478 C 362.352 347.574 357.628 349.000 351.546 349.000 L 346.391 349.000 344.317 355.000 L 342.243 361.000 350.121 361.000 C 354.455 361.000 358.000 361.182 358.000 361.405 C 358.000 362.700 353.131 370.601 351.008 372.752 C 347.819 375.983 341.859 378.586 335.624 379.469 C 332.414 379.924 329.899 381.010 328.259 382.650 C 326.039 384.870 325.816 385.780 326.198 391.064 C 326.572 396.233 327.045 397.362 329.905 399.915 L 333.183 402.842 328.842 409.995 C 326.454 413.929 323.420 419.027 322.101 421.324 C 320.782 423.621 319.399 425.725 319.028 426.000 C 318.657 426.275 318.032 427.175 317.638 428.000 C 316.806 429.742 316.542 430.181 308.147 443.750 C 304.659 449.388 301.428 454.000 300.967 454.000 C 300.505 454.000 297.097 448.938 293.392 442.750 C 289.688 436.563 283.359 426.263 279.328 419.863 C 275.298 413.463 272.000 407.725 272.000 407.113 C 272.000 406.501 271.598 406.000 271.107 406.000 C 270.616 406.000 269.928 405.256 269.579 404.346 C 269.150 403.228 269.982 401.826 272.146 400.019 C 274.971 397.661 275.399 396.629 275.789 391.243 C 276.185 385.762 275.976 384.885 273.741 382.650 C 272.101 381.010 269.586 379.924 266.376 379.469 C 258.852 378.403 253.704 375.716 249.927 370.885 C 246.563 366.580 244.000 362.529 244.000 361.514 C 244.000 361.231 247.600 361.000 252.000 361.000 C 260.085 361.000 260.867 360.584 259.065 357.236 C 258.552 356.281 257.542 354.038 256.821 352.250 C 255.564 349.130 255.289 349.000 249.952 349.000 C 240.056 349.000 231.968 343.385 226.089 332.433 L 223.978 328.500 235.378 328.000 L 246.778 327.500 244.639 322.251 L 242.500 317.002 236.873 317.001 C 233.778 317.000 228.044 316.277 224.131 315.393 C 215.752 313.501 210.583 309.434 206.475 301.500 L 203.886 296.500 217.995 295.865 C 225.754 295.516 232.287 295.047 232.511 294.823 C 232.735 294.598 231.826 292.184 230.490 289.458 C 229.155 286.731 228.048 283.938 228.031 283.250 C 228.008 282.320 224.884 282.000 215.838 282.000 C 200.232 282.000 194.798 280.418 188.643 274.082 C 186.194 271.562 183.244 267.700 182.087 265.500 L 179.982 261.500 198.491 261.228 C 208.671 261.078 217.000 260.606 217.000 260.178 C 217.000 259.750 216.585 258.973 216.078 258.450 C 215.571 257.928 214.757 255.925 214.268 254.000 L 213.379 250.500 200.440 249.855 C 185.947 249.132 180.381 247.986 174.416 244.498 C 169.921 241.870 163.534 235.265 161.794 231.446 C 161.181 230.101 160.351 229.000 159.950 229.000 C 158.331 229.000 150.197 249.295 147.325 260.500 C 137.674 298.147 141.711 337.358 158.748 371.450 C 162.925 379.807 170.355 391.912 174.126 396.500 C 182.510 406.703 188.924 413.695 193.984 418.149 C 197.293 421.062 200.000 423.790 200.000 424.211 C 200.000 425.442 196.654 429.000 195.497 429.000 C 193.590 429.000 171.634 405.656 165.854 397.483 C 153.479 379.987 144.257 359.754 139.654 340.000 C 138.821 336.425 137.547 331.025 136.823 328.000 C 135.017 320.457 135.017 281.543 136.823 274.000 C 137.547 270.975 138.812 265.575 139.634 262.000 C 143.725 244.208 152.205 224.769 163.191 208.000 C 173.322 192.535 192.379 173.589 209.000 162.457 C 216.107 157.697 231.110 149.813 237.500 147.481 C 240.250 146.477 242.950 145.330 243.500 144.933 C 245.507 143.483 272.351 136.700 280.500 135.585 C 287.684 134.601 326.692 135.974 332.500 137.415 M 107.129 142.129 C 109.007 144.007 109.183 144.979 108.618 150.379 L 107.979 156.500 110.240 153.301 C 112.671 149.860 118.655 146.000 121.557 146.000 C 124.633 146.000 127.000 149.033 127.000 152.975 C 127.000 157.263 127.976 158.256 139.615 165.814 C 145.502 169.637 148.219 172.101 149.512 174.792 C 150.492 176.831 151.678 179.281 152.147 180.236 C 153.402 182.792 153.185 189.415 151.800 190.800 C 149.952 192.648 148.767 192.296 143.216 188.250 C 140.386 186.188 135.789 182.925 133.000 181.000 C 130.210 179.075 126.932 176.729 125.714 175.787 C 123.865 174.356 123.646 174.333 124.387 175.646 C 128.257 182.504 129.863 186.231 130.451 189.710 C 131.060 193.314 130.842 193.979 128.432 195.875 C 126.946 197.044 124.447 198.000 122.879 198.000 C 120.577 198.000 119.751 197.340 118.597 194.578 C 117.811 192.696 115.892 190.343 114.334 189.351 C 112.775 188.358 111.275 187.311 111.000 187.023 C 110.725 186.735 109.038 185.474 107.250 184.220 C 103.469 181.568 103.382 181.904 105.489 191.000 C 106.317 194.575 107.237 199.168 107.534 201.207 C 107.872 203.523 109.656 206.858 112.287 210.089 C 114.604 212.934 117.537 216.807 118.805 218.694 C 121.586 222.837 122.847 231.274 121.015 233.482 C 119.031 235.872 117.533 235.292 115.253 231.250 C 114.089 229.188 112.105 226.397 110.843 225.049 L 108.548 222.599 107.524 228.915 C 106.557 234.878 106.276 235.350 102.500 237.366 C 100.300 238.539 98.328 239.597 98.117 239.716 C 97.906 239.835 99.031 241.476 100.617 243.362 C 102.203 245.249 105.525 250.058 108.000 254.049 C 110.475 258.040 112.956 261.800 113.514 262.403 C 121.161 270.673 122.818 275.851 118.453 277.839 C 111.088 281.195 101.134 277.521 99.837 270.968 C 98.264 263.021 96.627 257.856 91.941 246.066 C 85.684 230.321 85.547 226.074 91.441 230.532 C 92.509 231.339 93.746 232.000 94.191 232.000 C 94.636 232.000 95.000 227.120 95.000 221.155 C 95.000 211.569 94.767 210.099 92.994 208.494 C 90.686 206.406 90.816 206.326 88.538 211.213 C 86.880 214.769 84.002 216.737 82.141 215.587 C 81.658 215.289 81.488 211.913 81.762 208.084 L 82.260 201.124 76.630 195.222 C 73.533 191.975 71.000 188.867 71.000 188.315 C 71.000 185.794 75.349 183.497 80.355 183.373 C 83.185 183.303 86.293 182.915 87.263 182.511 C 89.499 181.579 91.609 183.307 92.482 186.785 C 93.235 189.785 94.781 192.000 96.122 192.000 C 96.605 192.000 96.995 188.513 96.989 184.250 C 96.979 176.673 96.895 176.411 93.218 172.500 C 87.673 166.601 85.740 163.173 86.423 160.451 C 87.059 157.917 92.077 153.664 95.748 152.549 C 97.970 151.874 98.310 151.075 99.488 143.750 C 99.994 140.599 100.483 140.000 102.545 140.000 C 103.895 140.000 105.958 140.958 107.129 142.129 M 403.192 50.750 C 407.150 54.991 411.000 61.701 411.000 64.358 C 411.000 65.676 410.264 67.366 409.364 68.113 C 407.245 69.872 403.625 75.681 402.270 79.500 C 401.684 81.150 400.860 83.354 400.438 84.399 C 399.728 86.159 400.028 86.247 404.586 85.610 C 418.701 83.637 418.672 83.637 419.238 85.802 C 419.959 88.561 417.998 92.182 414.986 93.654 C 413.618 94.322 408.900 95.481 404.500 96.229 C 396.531 97.583 396.488 97.607 393.323 102.421 C 384.474 115.883 374.643 120.929 357.177 120.975 C 348.994 120.997 347.893 120.795 348.177 119.329 C 348.385 118.254 351.179 116.723 356.000 115.043 C 365.065 111.883 371.177 108.548 372.870 105.837 C 373.985 104.051 373.912 103.893 372.215 104.432 C 367.577 105.904 354.386 108.000 349.760 108.000 C 344.972 108.000 344.404 107.708 339.348 102.652 C 335.609 98.913 334.000 96.517 334.000 94.687 C 334.000 90.801 337.121 89.494 342.681 91.051 C 347.980 92.534 363.499 91.797 375.435 89.494 C 379.800 88.652 383.435 87.859 383.513 87.731 C 384.669 85.848 388.075 74.080 391.103 61.500 C 394.240 48.464 397.967 45.151 403.192 50.750 M 456.504 461.265 C 462.058 462.978 464.764 465.114 467.044 469.586 C 469.069 473.559 469.647 481.430 468.093 483.883 C 467.443 484.910 469.958 487.450 477.859 493.745 C 483.711 498.408 488.635 502.577 488.799 503.009 C 489.143 503.913 483.705 508.000 482.156 508.000 C 481.587 508.000 478.957 506.155 476.311 503.899 C 473.665 501.644 470.375 498.882 469.000 497.761 C 467.625 496.640 465.535 494.852 464.356 493.787 C 462.507 492.117 461.923 492.031 460.106 493.166 C 458.948 493.889 458.000 495.064 458.000 495.776 C 458.000 496.488 460.925 500.948 464.500 505.688 C 468.075 510.427 471.000 514.598 471.000 514.956 C 471.000 515.315 469.467 517.094 467.592 518.911 L 464.185 522.213 462.957 519.920 C 462.282 518.658 460.953 516.793 460.004 515.774 C 459.055 514.756 456.535 511.352 454.403 508.211 C 452.271 505.070 450.291 502.275 450.003 502.000 C 449.714 501.725 447.037 497.900 444.054 493.500 C 441.071 489.100 436.688 482.947 434.315 479.826 C 431.942 476.705 430.000 473.731 430.000 473.216 C 430.000 472.701 431.175 471.430 432.611 470.390 C 434.047 469.351 435.734 468.044 436.361 467.487 C 439.716 464.503 448.402 460.257 451.500 460.086 C 452.050 460.055 454.302 460.586 456.504 461.265 M 206.428 500.500 C 206.122 504.900 205.451 511.511 204.936 515.192 C 204.421 518.872 204.006 523.372 204.014 525.192 C 204.029 528.736 204.653 527.766 215.877 506.750 C 219.680 499.627 221.625 498.543 225.505 501.380 C 227.298 502.691 226.736 504.081 214.172 529.380 C 206.901 544.021 200.724 556.000 200.444 556.000 C 200.164 556.000 198.321 555.325 196.348 554.501 L 192.761 553.002 193.463 542.251 C 193.850 536.338 194.567 529.700 195.058 527.500 C 195.549 525.300 195.962 521.750 195.976 519.612 C 195.997 516.127 195.248 517.271 188.767 530.612 C 184.789 538.800 181.444 545.657 181.334 545.850 C 180.885 546.634 173.825 543.706 173.382 542.552 C 173.118 541.866 178.786 529.574 185.976 515.237 L 199.049 489.169 203.017 490.835 L 206.984 492.500 206.428 500.500 M 352.853 519.250 C 353.483 524.888 354.676 535.125 355.504 542.000 C 358.571 567.445 358.528 566.000 356.221 566.000 C 355.089 566.000 353.502 566.254 352.693 566.564 C 351.605 566.982 348.792 562.484 341.903 549.314 L 332.584 531.500 333.223 541.500 C 333.575 547.000 334.185 555.663 334.579 560.750 L 335.296 570.000 330.783 570.000 L 326.270 570.000 325.590 556.250 C 325.216 548.688 324.501 538.900 324.001 534.500 C 323.502 530.100 322.907 523.238 322.680 519.250 L 322.267 512.000 327.634 512.000 C 331.737 512.000 333.000 512.353 333.000 513.500 C 333.000 514.325 333.450 515.000 334.000 515.000 C 334.550 515.000 335.000 515.520 335.000 516.156 C 335.000 516.791 336.125 518.786 337.500 520.589 C 338.875 522.392 340.000 524.139 340.000 524.473 C 340.000 524.806 341.614 527.424 343.587 530.289 C 345.560 533.155 346.943 534.600 346.659 533.500 C 346.375 532.400 345.854 527.225 345.500 522.000 C 345.146 516.775 344.634 511.713 344.361 510.750 C 343.949 509.297 344.530 509.000 347.787 509.000 L 351.709 509.000 352.853 519.250 M 281.768 458.548 C 286.941 460.709 290.000 463.865 290.000 467.039 C 290.000 470.217 286.821 474.605 283.831 475.554 C 281.810 476.195 281.857 476.337 284.857 478.685 C 290.647 483.217 288.037 491.785 280.205 493.960 C 271.554 496.363 258.410 494.194 254.152 489.661 C 252.925 488.355 251.673 485.760 251.370 483.893 C 250.681 479.648 253.665 475.452 258.059 474.487 L 261.093 473.821 258.547 471.274 C 254.108 466.835 255.852 460.189 262.107 457.710 C 265.180 456.492 278.174 457.046 281.768 458.548 M 187.753 484.803 C 188.189 485.935 186.430 490.847 181.416 502.500 C 179.060 507.975 176.823 513.384 172.110 525.000 C 165.401 541.533 166.003 540.783 161.622 538.076 C 159.630 536.844 158.000 535.411 158.000 534.891 C 158.000 534.370 159.546 530.817 161.435 526.994 L 164.870 520.043 162.185 518.032 C 160.708 516.927 158.895 515.509 158.156 514.883 C 157.097 513.987 155.495 515.049 150.629 519.872 C 147.228 523.243 143.854 526.000 143.131 526.000 C 142.408 526.000 140.620 525.010 139.158 523.800 L 136.500 521.601 157.838 500.286 L 179.177 478.972 183.214 481.236 C 185.434 482.481 187.476 484.086 187.753 484.803 M 104.411 391.121 C 105.904 394.116 105.778 396.000 104.085 396.000 C 103.646 396.000 98.989 398.263 93.734 401.029 L 84.181 406.058 87.198 411.779 C 88.857 414.926 90.619 417.931 91.115 418.458 C 91.678 419.057 95.954 417.399 102.531 414.031 C 108.647 410.900 113.376 409.035 113.834 409.574 C 114.266 410.083 115.135 411.714 115.765 413.199 C 116.909 415.894 116.896 415.905 105.705 421.594 C 81.915 433.687 67.448 441.260 66.200 442.273 C 64.565 443.599 62.399 441.591 61.499 437.916 C 60.898 435.460 61.448 435.043 72.690 429.446 L 84.513 423.560 81.283 417.140 C 79.506 413.608 77.842 410.509 77.584 410.251 C 77.105 409.772 57.471 419.402 55.294 421.185 C 54.630 421.728 53.676 421.918 53.174 421.608 C 52.095 420.941 49.558 415.101 50.115 414.568 C 50.327 414.365 59.050 409.817 69.500 404.460 C 79.950 399.103 91.380 393.208 94.901 391.360 C 98.421 389.512 101.651 388.000 102.077 388.000 C 102.504 388.000 103.554 389.405 104.411 391.121 M 249.607 510.534 C 253.330 513.945 253.478 514.329 253.845 521.601 L 254.225 529.134 250.363 528.817 C 246.550 528.504 246.494 528.439 246.000 523.768 C 244.748 511.914 234.646 512.050 228.783 524.000 C 223.869 534.017 221.641 548.159 224.217 552.983 C 226.136 556.579 230.194 557.758 233.405 555.654 C 236.086 553.897 240.323 546.332 239.433 544.891 C 239.148 544.431 237.131 543.574 234.949 542.986 C 231.305 542.005 231.034 541.698 231.620 539.209 C 231.971 537.719 232.569 536.153 232.950 535.729 C 233.330 535.305 236.872 535.976 240.821 537.220 C 246.602 539.042 247.998 539.874 247.990 541.491 C 247.985 542.596 246.410 548.382 244.490 554.350 C 242.571 560.317 241.000 565.829 241.000 566.600 C 241.000 568.251 240.038 568.345 236.584 567.032 C 235.079 566.460 234.248 565.518 234.551 564.729 C 234.941 563.711 233.762 563.406 229.608 563.447 C 213.341 563.606 209.506 543.736 221.318 520.500 C 225.827 511.630 232.317 507.105 240.624 507.040 C 245.123 507.005 246.220 507.431 249.607 510.534 M 121.000 419.777 C 121.000 420.205 123.245 423.693 125.990 427.527 C 128.734 431.362 131.546 435.329 132.240 436.343 C 132.933 437.357 134.475 439.339 135.666 440.749 C 138.108 443.639 137.239 445.400 132.826 446.507 C 130.739 447.031 129.874 446.324 126.469 441.307 C 124.301 438.113 122.286 435.275 121.990 435.000 C 121.695 434.725 120.672 433.270 119.715 431.768 L 117.977 429.036 111.239 433.136 C 107.532 435.391 104.340 437.381 104.144 437.557 C 103.838 437.833 109.582 446.582 111.000 448.000 C 111.275 448.275 112.516 449.950 113.759 451.721 L 116.017 454.943 113.759 456.403 C 112.516 457.206 111.000 458.007 110.388 458.182 C 109.777 458.357 106.529 454.805 103.171 450.288 L 97.065 442.077 89.839 446.532 C 85.865 448.982 82.277 451.327 81.867 451.744 C 81.268 452.350 85.213 458.474 90.730 465.500 C 94.195 469.912 95.163 472.284 93.855 473.159 C 91.067 475.027 88.819 476.152 88.516 475.831 C 87.412 474.665 71.950 452.776 71.076 451.142 C 69.663 448.502 69.717 448.000 71.417 448.000 C 72.196 448.000 72.983 447.635 73.167 447.189 C 73.350 446.743 78.675 443.283 85.000 439.500 C 91.325 435.717 96.650 432.257 96.833 431.811 C 97.017 431.365 97.692 430.975 98.333 430.945 C 98.975 430.915 103.550 428.240 108.500 425.000 C 116.782 419.579 121.000 417.817 121.000 419.777 M 294.161 536.315 C 293.815 557.158 293.952 559.809 295.457 561.314 C 299.227 565.084 305.677 564.669 308.421 560.480 C 309.794 558.384 310.196 554.064 310.702 535.968 L 311.316 514.000 315.718 514.000 L 320.121 514.000 319.484 523.250 C 319.133 528.338 318.527 539.307 318.136 547.627 C 317.467 561.863 317.271 562.956 314.803 566.192 C 312.095 569.742 306.864 572.000 301.346 572.000 C 296.067 572.000 289.736 567.966 287.221 563.000 C 284.799 558.216 284.732 553.325 286.668 522.750 L 287.286 513.000 290.917 513.000 L 294.548 513.000 294.161 536.315 M 429.865 478.057 C 430.609 479.739 431.057 481.225 430.859 481.359 C 430.662 481.493 427.575 483.123 424.000 484.981 C 420.425 486.839 416.312 489.076 414.860 489.952 L 412.219 491.545 415.134 496.522 C 416.737 499.260 418.542 502.474 419.145 503.663 C 420.237 505.817 420.276 505.809 427.871 501.777 C 432.067 499.549 436.073 497.274 436.774 496.721 C 438.264 495.545 438.257 495.538 440.379 499.713 L 442.013 502.925 434.756 506.905 C 430.765 509.093 426.864 511.272 426.087 511.746 C 424.939 512.446 425.361 513.779 428.337 518.858 C 430.352 522.295 432.000 525.443 432.000 525.854 C 432.000 526.264 432.527 527.127 433.172 527.772 C 434.068 528.668 436.773 527.659 444.658 523.486 L 454.972 518.028 456.596 520.506 C 458.790 523.855 458.064 525.162 452.357 528.135 C 449.686 529.527 444.031 532.541 439.791 534.833 C 435.551 537.125 431.718 539.000 431.274 539.000 C 430.514 539.000 427.041 533.575 421.992 524.500 C 420.767 522.300 418.919 519.306 417.883 517.846 C 416.847 516.386 416.000 514.939 416.000 514.631 C 416.000 514.323 413.525 509.989 410.500 505.000 C 407.475 500.011 405.000 495.677 405.000 495.369 C 405.000 495.061 404.051 493.476 402.891 491.847 C 401.731 490.218 400.943 488.743 401.141 488.570 C 401.338 488.397 405.100 486.325 409.500 483.964 C 413.900 481.604 419.300 478.668 421.500 477.440 C 426.951 474.396 428.288 474.495 429.865 478.057 M 400.323 494.750 C 400.641 497.363 401.561 503.775 402.369 509.000 C 403.176 514.225 404.325 521.875 404.921 526.000 C 405.517 530.125 406.433 535.975 406.957 539.000 C 409.140 551.622 409.215 550.746 405.810 552.445 C 404.096 553.300 402.166 554.000 401.522 554.000 C 400.878 554.000 396.360 547.588 391.482 539.750 C 386.604 531.913 379.503 520.614 375.701 514.642 C 368.190 502.845 368.097 501.723 374.513 500.454 C 376.889 499.984 377.705 500.286 378.500 501.932 C 379.735 504.487 396.429 530.905 396.660 530.670 C 396.870 530.456 394.428 511.668 393.063 503.000 C 391.539 493.317 391.654 492.523 394.750 491.299 C 399.269 489.514 399.720 489.793 400.323 494.750 M 481.851 437.098 C 485.525 438.379 485.475 438.196 483.361 442.652 C 482.166 445.170 481.284 445.926 480.111 445.440 C 476.422 443.913 475.084 443.905 472.200 445.397 C 466.883 448.146 467.062 456.704 472.488 459.176 C 474.662 460.167 476.197 459.815 483.452 456.664 C 495.886 451.264 503.995 451.932 510.266 458.873 C 517.663 467.060 515.540 480.133 506.025 484.987 C 501.407 487.343 493.287 487.662 490.464 485.597 C 488.868 484.430 488.714 483.716 489.549 481.347 C 490.496 478.660 490.877 478.500 496.364 478.498 C 501.491 478.497 502.461 478.166 504.588 475.692 C 507.985 471.743 507.670 468.470 503.490 464.290 C 500.325 461.125 499.614 460.849 496.240 461.474 C 494.183 461.855 490.250 463.320 487.500 464.730 C 483.712 466.672 480.880 467.319 475.816 467.397 C 469.766 467.490 468.852 467.231 466.168 464.660 C 464.537 463.098 462.441 459.824 461.508 457.383 C 460.078 453.639 459.995 452.189 460.975 448.102 C 462.099 443.418 466.376 438.016 470.000 436.702 C 472.603 435.758 478.581 435.958 481.851 437.098 M 218.418 93.607 C 220.382 94.360 220.423 98.635 218.500 102.000 C 217.683 103.428 217.056 107.251 217.035 110.918 C 216.990 119.186 215.480 128.468 212.548 138.500 C 211.262 142.900 209.431 149.562 208.479 153.304 C 205.733 164.100 203.474 165.076 193.160 159.922 C 187.487 157.087 187.000 156.584 187.000 153.557 C 187.000 151.749 187.788 149.191 188.750 147.873 C 191.072 144.694 192.862 141.837 193.683 140.000 C 194.052 139.175 194.612 138.275 194.927 138.000 C 195.573 137.436 195.954 136.764 202.569 124.531 C 205.184 119.694 207.955 113.209 208.727 110.118 C 209.499 107.028 210.577 102.707 211.123 100.515 C 212.082 96.667 214.497 93.000 216.073 93.000 C 216.493 93.000 217.548 93.273 218.418 93.607 M 335.282 458.371 C 341.408 460.981 343.425 464.292 343.835 472.405 C 344.524 486.048 338.307 492.889 323.653 494.611 C 315.965 495.515 313.000 494.617 313.000 491.387 C 313.000 488.894 313.151 488.832 317.750 489.438 C 323.673 490.218 328.514 488.840 332.175 485.333 C 336.627 481.067 335.903 480.444 326.966 480.850 C 322.031 481.074 317.781 480.738 315.946 479.978 C 311.717 478.226 308.000 473.450 308.000 469.768 C 308.000 465.927 312.191 460.259 316.379 458.437 C 320.450 456.665 331.191 456.628 335.282 458.371 M 94.750 365.797 C 97.638 373.384 100.000 379.920 100.000 380.321 C 100.000 381.243 94.991 383.298 93.000 383.192 C 92.175 383.149 86.775 382.397 81.000 381.523 C 75.225 380.649 66.225 379.289 61.000 378.501 C 55.775 377.713 49.588 376.768 47.250 376.402 C 44.913 376.036 43.015 375.908 43.033 376.118 C 43.134 377.300 46.810 387.143 47.353 387.686 C 47.709 388.042 48.000 388.978 48.000 389.766 C 48.000 390.553 48.739 392.755 49.642 394.657 C 51.388 398.338 51.111 398.937 46.813 400.760 C 44.208 401.865 44.076 401.757 42.442 397.200 C 41.515 394.615 40.194 391.150 39.507 389.500 C 35.610 380.138 32.870 371.781 33.317 370.617 C 34.525 367.468 40.190 367.768 71.000 372.614 C 76.225 373.436 82.648 374.367 85.273 374.683 L 90.045 375.259 86.893 366.879 C 82.386 354.898 82.362 354.631 85.675 353.326 C 87.229 352.714 88.725 352.166 89.000 352.108 C 89.275 352.050 91.863 358.210 94.750 365.797 M 521.892 352.675 C 524.976 355.246 527.950 357.837 528.500 358.433 C 530.783 360.909 543.688 371.734 546.000 373.114 C 547.375 373.934 551.988 376.105 556.250 377.938 C 560.513 379.771 564.000 381.367 564.000 381.486 C 564.000 381.604 563.506 383.119 562.902 384.851 C 561.537 388.766 560.418 388.775 551.016 384.943 C 543.772 381.992 542.880 381.874 523.266 381.289 C 504.202 380.721 503.000 380.572 503.000 378.777 C 503.000 377.727 503.466 375.998 504.035 374.934 C 504.974 373.180 506.255 372.997 517.785 372.970 L 530.500 372.939 521.718 364.720 C 516.888 360.199 512.950 355.802 512.968 354.949 C 513.002 353.306 515.229 348.021 515.892 348.008 C 516.108 348.004 518.808 350.104 521.892 352.675 M 152.982 459.705 L 155.110 462.409 140.305 477.257 C 132.162 485.424 123.700 493.373 121.500 494.923 C 113.259 500.726 105.682 499.854 99.067 492.339 C 95.334 488.098 95.000 487.253 95.000 482.059 C 95.000 476.050 96.213 473.767 98.872 474.772 C 101.881 475.911 103.499 478.331 103.610 481.858 C 103.687 484.337 104.508 486.040 106.416 487.681 C 111.872 492.375 113.872 491.124 134.956 469.834 C 141.855 462.868 148.255 457.130 149.177 457.084 C 150.100 457.038 151.812 458.217 152.982 459.705 M 252.923 51.077 C 255.494 53.648 256.000 54.934 256.000 58.899 C 256.000 61.509 255.303 65.636 254.452 68.072 C 252.669 73.169 245.141 83.349 242.825 83.795 C 241.017 84.143 240.034 81.303 240.014 75.679 C 240.001 72.205 239.857 72.000 238.429 73.429 C 237.564 74.293 235.945 75.000 234.830 75.000 C 231.623 75.000 225.905 71.886 224.847 69.563 C 223.733 67.118 225.264 62.000 227.109 62.000 C 227.746 62.000 231.584 58.850 235.637 55.000 C 244.430 46.647 247.742 45.896 252.923 51.077 M 505.879 384.874 L 508.258 386.703 505.629 391.190 C 504.183 393.657 503.000 395.935 503.000 396.252 C 503.000 396.570 504.913 397.926 507.250 399.266 C 509.588 400.606 514.425 403.400 518.000 405.474 C 521.575 407.548 525.850 410.022 527.500 410.973 C 536.947 416.414 548.088 423.333 548.515 424.024 C 548.786 424.463 548.244 426.155 547.310 427.783 L 545.611 430.743 541.055 428.214 C 538.550 426.824 531.038 422.381 524.363 418.343 C 517.687 414.304 511.725 411.000 511.113 411.000 C 510.501 411.000 510.000 410.550 510.000 410.000 C 510.000 409.450 509.507 409.000 508.904 409.000 C 508.302 409.000 506.614 408.173 505.154 407.163 C 500.054 403.633 499.185 403.743 496.360 408.279 C 494.914 410.601 493.608 412.646 493.458 412.824 C 492.951 413.427 487.000 409.955 487.000 409.055 C 487.000 408.142 490.097 401.905 491.000 401.001 C 491.275 400.725 493.256 397.125 495.403 393.000 C 501.227 381.810 501.559 381.552 505.879 384.874 M 164.002 468.855 L 167.127 471.709 162.013 478.105 C 156.346 485.191 151.032 491.681 149.500 493.387 C 148.950 493.999 145.809 497.875 142.519 502.000 C 139.230 506.125 135.107 511.021 133.357 512.881 L 130.175 516.261 127.035 514.025 C 125.307 512.795 124.030 511.186 124.197 510.449 C 124.488 509.162 127.457 505.356 140.500 489.548 C 143.800 485.548 149.425 478.629 153.000 474.172 C 156.575 469.715 159.810 466.053 160.188 466.034 C 160.567 466.016 162.283 467.285 164.002 468.855 M 366.935 513.500 C 369.945 524.411 371.744 531.032 373.388 537.250 C 374.152 540.138 375.478 544.525 376.335 547.000 C 377.192 549.475 378.310 553.372 378.820 555.660 L 379.747 559.821 375.656 560.859 C 373.406 561.431 371.419 561.752 371.240 561.573 C 370.958 561.292 364.452 538.289 360.471 523.500 C 359.731 520.750 358.438 516.046 357.599 513.047 C 356.760 510.047 356.304 507.363 356.585 507.081 C 357.604 506.063 363.515 504.373 364.114 504.930 C 364.451 505.243 365.721 509.100 366.935 513.500 M 487.000 419.900 C 487.275 420.230 488.400 421.037 489.500 421.694 C 501.795 429.032 510.592 434.443 511.000 434.918 C 511.623 435.644 514.856 437.680 517.500 439.013 C 522.954 441.762 531.527 447.828 531.731 449.082 C 531.859 449.862 531.081 451.550 530.003 452.834 L 528.043 455.169 520.271 450.357 C 515.997 447.710 512.350 445.197 512.167 444.772 C 511.983 444.348 511.228 444.000 510.488 444.000 C 509.748 444.000 508.529 443.438 507.779 442.750 C 507.029 442.063 505.535 440.957 504.458 440.293 C 503.381 439.629 499.125 437.022 495.000 434.500 C 484.790 428.258 483.768 427.618 482.555 426.716 C 481.975 426.285 480.647 425.343 479.604 424.623 C 477.761 423.350 477.772 423.228 480.008 420.204 C 481.989 417.523 482.596 417.246 484.403 418.197 C 485.557 418.803 486.725 419.570 487.000 419.900 M 386.047 437.282 C 387.382 438.333 387.519 441.103 387.047 457.447 L 386.500 476.394 383.250 478.289 L 380.000 480.184 380.000 463.092 C 380.000 453.691 379.745 446.000 379.433 446.000 C 379.121 446.000 374.675 448.025 369.553 450.500 C 364.431 452.975 359.766 455.000 359.187 455.000 C 358.608 455.000 357.824 454.022 357.445 452.826 C 356.740 450.605 358.987 448.000 361.608 448.000 C 362.282 448.000 362.983 447.663 363.167 447.250 C 363.464 446.581 382.765 436.273 384.000 436.124 C 384.275 436.091 385.196 436.612 386.047 437.282 M 221.810 442.555 C 224.059 443.677 225.448 443.831 226.802 443.106 C 228.997 441.931 232.658 442.667 233.330 444.417 C 233.587 445.088 230.329 451.721 226.088 459.158 L 218.378 472.678 221.689 474.848 C 225.215 477.159 225.474 477.703 224.089 479.890 C 222.803 481.921 202.301 469.267 202.800 466.750 C 203.234 464.561 205.846 464.503 208.862 466.616 C 211.742 468.633 212.007 468.382 218.172 457.763 C 223.375 448.800 223.383 448.959 217.551 445.500 C 216.469 444.858 216.106 443.873 216.539 442.750 C 217.366 440.607 217.868 440.588 221.810 442.555 M 259.810 80.810 C 260.504 90.440 253.478 102.000 246.931 102.000 C 242.061 102.000 235.119 98.323 234.373 95.348 C 233.654 92.487 236.282 89.469 240.391 88.438 C 241.800 88.084 244.436 86.154 246.249 84.148 C 251.189 78.681 255.142 75.877 257.441 76.206 C 259.096 76.442 259.561 77.345 259.810 80.810 M 410.062 120.263 C 416.519 124.615 417.724 136.540 412.005 139.498 C 408.304 141.412 400.094 141.386 397.537 139.452 C 395.825 138.158 395.722 137.575 396.731 134.902 C 397.503 132.856 397.574 131.010 396.944 129.353 C 395.623 125.877 395.768 121.179 397.250 119.496 C 399.226 117.252 406.214 117.670 410.062 120.263 M 505.077 153.750 C 505.898 161.730 505.833 169.487 504.913 173.337 C 503.383 179.746 498.282 185.000 493.589 185.000 C 487.714 185.000 486.546 180.405 490.793 174.000 C 493.722 169.582 495.676 165.598 496.923 161.500 C 498.964 154.788 500.173 153.000 502.669 153.000 C 503.951 153.000 505.035 153.338 505.077 153.750 M 197.633 57.597 C 202.466 59.238 205.908 62.316 205.967 65.050 C 206.022 67.618 201.112 74.322 197.042 77.235 C 192.859 80.230 191.833 79.833 190.619 74.750 C 190.258 73.238 189.498 72.000 188.930 72.000 C 186.430 72.000 184.045 61.652 185.607 57.582 C 186.400 55.516 191.523 55.522 197.633 57.597 M 200.785 87.736 C 204.632 90.196 205.932 92.089 205.968 95.285 C 206.015 99.380 202.872 104.009 197.879 107.202 C 195.335 108.828 195.179 108.796 192.629 106.134 C 191.183 104.625 190.000 102.853 190.000 102.195 C 190.000 101.538 189.586 101.000 189.079 101.000 C 188.573 101.000 187.864 99.655 187.503 98.011 C 187.142 96.368 186.431 94.766 185.923 94.452 C 184.439 93.535 184.849 91.462 187.073 88.635 C 188.758 86.492 189.978 86.000 193.608 86.000 C 196.135 86.000 199.248 86.753 200.785 87.736 M 63.000 202.000 C 65.299 204.299 65.504 207.713 63.704 213.731 C 61.942 219.619 60.390 221.002 58.528 218.343 C 57.706 217.170 55.428 215.985 53.287 215.617 C 47.652 214.650 42.000 209.013 42.000 204.361 C 42.000 201.777 43.395 201.105 47.500 201.710 C 49.150 201.953 51.625 201.696 53.000 201.139 C 57.007 199.517 60.847 199.847 63.000 202.000 M 78.365 221.073 C 80.610 222.838 80.998 223.912 80.986 228.323 C 80.968 235.414 80.138 238.000 77.883 238.000 C 76.848 238.000 76.000 237.590 76.000 237.089 C 76.000 236.588 73.863 235.198 71.250 233.999 C 68.638 232.801 65.481 231.331 64.235 230.733 C 62.989 230.135 61.293 228.288 60.465 226.629 C 58.454 222.599 60.002 221.066 67.130 220.030 C 75.334 218.837 75.549 218.857 78.365 221.073 M 482.800 166.200 C 484.691 168.091 484.310 176.418 482.250 178.227 C 479.251 180.860 476.460 181.193 474.012 179.211 C 471.159 176.900 471.845 174.285 476.719 168.889 C 480.565 164.633 481.028 164.428 482.800 166.200 "/></g>
<g fill="#003F88FF" stroke="#003F88FF">
<path d="M 292.500 222.390 C 287.501 224.310 285.104 225.936 283.867 228.249 C 282.695 230.439 282.237 231.995 279.384 243.500 C 272.939 269.484 274.335 267.962 268.223 255.667 C 262.853 244.863 255.760 235.869 249.615 232.071 C 247.818 230.960 243.232 229.324 239.424 228.434 C 233.377 227.020 227.877 226.909 196.000 227.558 C 175.925 227.966 160.063 228.495 160.750 228.733 C 161.438 228.972 162.000 229.743 162.000 230.448 C 162.000 231.152 163.343 233.252 164.984 235.114 C 166.625 236.977 167.975 238.778 167.984 239.117 C 168.019 240.466 176.577 245.298 182.204 247.145 C 186.619 248.595 191.380 249.154 200.543 249.301 L 212.918 249.500 214.959 254.383 C 216.082 257.069 217.000 259.657 217.000 260.133 C 217.000 260.610 208.679 261.000 198.509 261.000 L 180.018 261.000 183.179 266.136 C 190.841 278.589 195.808 281.078 214.648 281.903 L 228.294 282.500 230.786 288.278 C 232.157 291.455 233.047 294.287 232.763 294.570 C 232.480 294.853 226.230 295.500 218.874 296.007 C 211.518 296.514 205.411 296.945 205.302 296.965 C 205.193 296.984 205.610 298.450 206.228 300.223 C 207.938 305.129 215.788 312.399 221.463 314.333 C 224.463 315.355 229.524 316.000 234.545 316.000 L 242.733 316.000 244.867 321.133 C 248.225 329.216 248.469 329.000 235.965 329.000 L 224.930 329.000 226.089 331.250 C 226.726 332.488 229.002 335.857 231.147 338.738 C 236.132 345.434 241.244 348.000 249.600 348.000 L 255.825 348.000 258.215 354.250 L 260.604 360.500 252.802 360.790 C 248.490 360.951 245.000 361.526 245.000 362.076 C 245.000 363.465 247.881 367.965 250.932 371.342 C 254.378 375.154 259.328 377.576 266.852 379.130 C 272.118 380.218 273.402 380.915 275.048 383.578 C 276.122 385.315 277.000 388.190 277.000 389.967 C 277.000 393.935 274.419 399.593 271.760 401.455 C 269.853 402.792 270.079 403.339 278.068 416.671 C 282.625 424.277 289.724 435.835 293.844 442.356 L 301.333 454.211 304.417 449.040 C 306.112 446.196 312.406 435.911 318.403 426.184 C 324.399 416.458 329.970 407.372 330.781 405.993 C 332.170 403.635 332.075 403.292 329.183 400.196 C 325.178 395.908 324.110 389.678 326.512 384.616 C 328.247 380.959 329.774 380.195 339.053 378.339 C 344.744 377.201 350.882 372.862 354.053 367.735 C 355.674 365.114 357.000 362.527 357.000 361.985 C 357.000 361.426 353.757 361.000 349.500 361.000 C 345.286 361.000 342.000 360.572 342.000 360.023 C 342.000 359.486 343.013 356.562 344.250 353.525 L 346.500 348.003 352.790 348.001 C 361.413 347.999 365.714 345.610 371.970 337.346 C 374.737 333.691 377.000 330.319 377.000 329.851 C 377.000 329.383 372.050 329.000 366.000 329.000 C 356.074 329.000 355.000 328.824 355.000 327.200 C 355.000 326.210 355.396 324.973 355.879 324.450 C 356.363 323.928 357.298 321.813 357.957 319.750 L 359.155 316.000 367.540 316.000 C 376.761 316.000 384.530 313.750 389.081 309.762 C 391.980 307.221 397.533 298.200 396.706 297.373 C 396.411 297.078 390.226 296.442 382.961 295.961 C 375.695 295.479 369.542 294.875 369.285 294.619 C 369.029 294.362 370.019 291.480 371.485 288.214 L 374.150 282.274 387.825 281.764 C 402.058 281.232 406.378 280.105 411.849 275.500 C 414.092 273.611 422.000 262.748 422.000 261.555 C 422.000 261.250 413.627 261.000 403.393 261.000 C 382.583 261.000 384.306 261.824 387.701 253.500 L 389.333 249.500 401.617 249.290 C 420.833 248.962 431.099 244.584 438.380 233.615 C 440.371 230.615 442.000 227.900 442.000 227.581 C 442.000 226.479 369.285 226.961 363.799 228.099 C 350.602 230.837 341.997 239.526 331.513 260.699 L 328.443 266.898 327.262 264.199 C 326.613 262.715 325.117 259.250 323.938 256.500 C 322.760 253.750 320.698 249.125 319.356 246.223 C 318.014 243.320 317.150 240.566 317.436 240.103 C 317.723 239.640 322.017 237.797 326.978 236.008 C 331.940 234.219 336.000 232.391 336.000 231.945 C 336.000 230.813 331.252 227.705 326.500 225.726 C 315.843 221.289 299.536 219.689 292.500 222.390 "/></g>
<g fill="#FFFFFFFF" stroke="#FFFFFFFF">
<path d="M 1.000 462.333 L 1.000 601.000 140.667 601.000 C 217.483 601.000 280.146 600.826 279.917 600.613 C 279.688 600.400 274.100 599.711 267.500 599.081 C 243.673 596.807 216.000 590.052 191.386 580.500 C 182.201 576.936 154.563 563.345 149.320 559.815 C 147.021 558.267 144.658 557.000 144.070 557.000 C 143.481 557.000 143.000 556.580 143.000 556.067 C 143.000 555.554 141.988 554.819 140.750 554.433 C 139.513 554.046 138.275 553.454 138.000 553.115 C 137.725 552.777 134.800 550.709 131.500 548.520 C 104.473 530.591 71.409 497.527 53.480 470.500 C 51.291 467.200 49.252 464.275 48.950 464.000 C 46.242 461.539 29.868 430.314 23.780 416.000 C 13.662 392.214 5.621 361.153 2.940 335.500 C 2.308 329.450 1.613 324.313 1.395 324.083 C 1.178 323.854 1.000 386.067 1.000 462.333 "/></g>
<g fill="#FFFFFFFF" stroke="#FFFFFFFF">
<path d="M 600.238 327.000 C 600.098 327.825 599.541 332.550 599.001 337.500 C 597.986 346.785 595.622 360.856 594.043 367.000 C 593.548 368.925 592.376 373.650 591.437 377.500 C 588.860 388.074 583.044 405.280 578.863 414.695 C 577.838 417.002 577.000 419.152 577.000 419.472 C 577.000 420.214 567.276 439.762 563.306 447.000 C 558.232 456.251 548.953 471.047 547.000 473.000 C 546.725 473.275 544.950 475.750 543.055 478.500 C 533.791 491.944 509.282 518.097 494.500 530.311 C 490.650 533.493 486.600 536.886 485.500 537.853 C 484.400 538.819 481.250 541.160 478.500 543.055 C 475.750 544.950 473.275 546.749 473.000 547.053 C 472.725 547.357 470.700 548.683 468.500 550.000 C 466.300 551.317 464.275 552.673 464.000 553.013 C 463.563 553.553 448.518 562.516 443.758 565.072 C 409.571 583.426 370.800 595.541 335.000 599.056 C 328.675 599.677 323.313 600.368 323.083 600.592 C 322.854 600.817 385.293 601.000 461.837 601.000 L 601.007 601.000 600.750 463.250 C 600.609 387.488 600.378 326.175 600.238 327.000 "/></g>
<g fill="#FFFFFFFF" stroke="#FFFFFFFF">
<path d="M 1.000 139.667 C 1.000 215.933 1.180 278.146 1.401 277.917 C 1.621 277.687 2.314 272.325 2.942 266.000 C 3.569 259.675 4.503 252.475 5.017 250.000 C 10.020 225.915 10.218 225.101 14.432 211.283 C 19.183 195.710 34.853 159.230 37.249 158.167 C 37.662 157.983 38.000 157.350 38.000 156.759 C 38.000 154.692 59.845 120.743 62.940 118.000 C 63.251 117.725 66.199 114.125 69.491 110.000 C 77.340 100.168 100.507 76.979 110.000 69.454 C 114.125 66.184 117.725 63.279 118.000 62.998 C 120.780 60.164 133.752 51.405 147.000 43.417 C 183.160 21.614 224.934 7.173 263.994 2.974 C 269.765 2.354 274.678 1.656 274.910 1.423 C 275.143 1.190 213.608 1.000 138.167 1.000 L 1.000 1.000 1.000 139.667 "/></g>
<g fill="#FFFFFFFF" stroke="#FFFFFFFF">
<path d="M 327.090 1.423 C 327.322 1.656 332.235 2.354 338.006 2.974 C 358.305 5.156 395.646 14.206 404.236 19.026 C 405.191 19.562 406.454 20.000 407.041 20.000 C 407.629 20.000 409.998 20.836 412.305 21.858 C 414.612 22.880 418.061 24.342 419.969 25.108 C 427.688 28.206 454.302 42.055 454.833 43.250 C 455.017 43.663 455.584 44.000 456.093 44.000 C 457.830 44.000 485.464 63.043 488.000 65.987 C 488.275 66.307 490.750 68.336 493.500 70.498 C 499.420 75.151 526.751 102.492 532.551 109.562 C 542.126 121.236 550.646 133.256 557.314 144.500 C 557.966 145.600 558.725 146.725 559.000 147.001 C 560.693 148.696 574.362 175.874 577.861 184.500 C 579.645 188.900 581.501 193.400 581.985 194.500 C 582.996 196.801 588.076 212.120 590.275 219.500 C 591.578 223.875 593.809 233.687 596.980 249.000 C 597.493 251.475 598.494 258.675 599.206 265.000 C 600.323 274.925 600.535 257.636 600.754 138.750 L 601.007 1.000 463.837 1.000 C 388.393 1.000 326.857 1.190 327.090 1.423 "/></g>
<g fill="#FFFFFFFF" stroke="#FFFFFFFF">
<path d="M 275.000 143.984 C 256.818 147.262 246.241 150.773 229.911 158.948 C 220.349 163.735 207.236 171.946 202.048 176.397 C 198.154 179.737 179.675 198.246 177.484 201.000 C 171.348 208.715 160.000 226.010 160.000 227.647 C 160.000 227.984 176.313 227.939 196.250 227.548 C 237.267 226.743 243.618 227.265 250.519 232.013 C 257.234 236.633 262.808 243.689 268.170 254.355 C 270.894 259.775 273.371 263.962 273.674 263.659 C 273.977 263.356 274.873 260.271 275.665 256.804 C 276.457 253.337 277.783 247.800 278.613 244.500 C 279.443 241.200 280.610 236.331 281.207 233.681 C 282.765 226.761 286.329 223.625 295.066 221.484 C 301.880 219.814 302.689 219.814 312.357 221.490 C 322.198 223.196 332.219 227.081 336.302 230.774 C 338.000 232.310 337.685 232.564 330.818 235.202 C 326.811 236.741 323.217 238.000 322.831 238.000 C 322.446 238.000 320.996 238.431 319.609 238.959 L 317.088 239.917 320.150 246.709 C 321.834 250.444 324.064 255.388 325.106 257.695 C 326.148 260.002 327.000 262.338 327.000 262.886 C 327.000 266.090 329.192 264.101 332.127 258.234 C 337.318 247.858 339.952 243.980 346.025 237.776 C 356.230 227.351 355.187 227.549 401.698 227.189 L 441.897 226.877 439.869 223.267 C 429.054 204.012 407.458 180.698 389.500 168.892 C 361.260 150.326 332.802 141.842 299.750 142.135 C 290.302 142.219 280.885 142.922 275.000 143.984 "/></g>
<g fill="#003F88FF" stroke="#003F88FF">
<path d="M 284.000 136.001 C 256.517 139.174 232.607 147.730 210.500 162.302 C 198.633 170.124 194.177 173.768 184.000 183.975 C 174.175 193.829 170.288 198.527 163.119 209.215 C 158.470 216.146 148.000 235.731 148.000 237.496 C 148.000 237.882 147.380 239.616 146.622 241.349 C 143.064 249.484 140.087 260.626 137.012 277.316 C 135.192 287.196 135.465 315.387 137.493 327.000 C 141.708 351.136 149.912 372.313 162.479 391.500 C 169.632 402.422 172.443 405.806 184.711 418.264 C 194.791 428.500 195.402 428.946 197.156 427.359 C 198.170 426.441 199.000 425.223 199.000 424.652 C 199.000 424.080 195.288 419.979 190.750 415.537 C 161.964 387.359 146.706 355.715 142.475 315.418 C 141.108 302.407 141.105 299.314 142.441 286.669 C 145.197 260.585 151.542 240.716 163.711 220.064 C 176.395 198.539 199.407 175.148 218.500 164.374 C 236.356 154.297 252.990 147.851 269.500 144.610 C 289.499 140.683 303.326 140.269 323.500 142.992 C 331.399 144.058 352.534 149.246 355.811 150.924 C 356.740 151.400 361.550 153.508 366.500 155.609 C 371.450 157.711 375.650 159.783 375.833 160.215 C 376.017 160.647 376.692 161.000 377.334 161.000 C 378.814 161.000 392.975 170.238 399.527 175.477 C 412.994 186.246 430.721 206.263 437.626 218.500 C 462.323 262.265 467.330 306.690 452.503 350.500 C 443.714 376.469 431.915 395.297 412.213 414.791 L 402.823 424.081 404.501 426.642 L 406.179 429.203 409.253 426.351 C 434.774 402.679 448.711 381.715 458.680 352.000 C 468.586 322.476 469.381 287.440 460.849 256.500 C 457.847 245.617 449.304 225.691 443.272 215.508 C 432.903 198.000 410.699 174.496 395.000 164.410 C 392.525 162.820 390.275 161.290 390.000 161.009 C 389.035 160.026 383.482 156.871 381.750 156.322 C 380.788 156.016 380.000 155.369 380.000 154.883 C 380.000 154.398 379.590 154.000 379.089 154.000 C 378.588 154.000 374.651 152.393 370.339 150.429 C 357.810 144.722 355.602 143.899 346.000 141.357 C 326.986 136.322 300.805 134.060 284.000 136.001 "/></g>
<g fill="#003F88FF" stroke="#003F88FF">
<path d="M 100.572 141.672 C 100.258 142.493 99.986 144.589 99.968 146.332 C 99.930 150.165 98.335 152.453 94.996 153.467 C 91.412 154.555 87.000 159.008 87.000 161.537 C 87.000 163.961 92.145 171.534 95.686 174.323 C 97.749 175.948 98.000 176.986 98.000 183.906 C 98.000 188.174 97.716 191.951 97.369 192.298 C 96.060 193.606 93.314 190.982 92.081 187.247 L 90.802 183.371 84.151 183.295 C 76.755 183.210 72.000 185.178 72.000 188.324 C 72.000 189.365 74.052 192.100 76.559 194.403 C 81.678 199.103 83.305 203.713 81.956 209.695 C 80.999 213.937 81.393 215.000 83.920 215.000 C 85.033 215.000 86.627 213.295 88.088 210.539 L 90.455 206.079 92.641 208.133 C 94.457 209.839 94.945 211.756 95.523 219.462 C 96.446 231.774 95.342 235.199 91.643 231.500 C 89.866 229.724 87.000 229.512 87.000 231.158 C 87.000 231.795 89.297 237.982 92.104 244.908 C 97.044 257.096 99.038 263.406 100.426 271.248 C 101.174 275.473 104.306 277.702 110.074 278.114 C 116.407 278.567 118.912 278.034 120.000 276.000 C 121.258 273.650 120.336 271.527 115.440 265.500 C 113.653 263.300 108.854 256.488 104.776 250.363 L 97.361 239.225 101.280 237.496 C 105.718 235.538 107.995 231.406 108.009 225.282 L 108.017 221.500 111.274 225.000 C 113.065 226.925 115.076 229.738 115.744 231.250 C 117.166 234.472 120.565 234.946 121.484 232.049 C 122.216 229.743 120.480 222.712 118.151 218.552 C 117.243 216.930 114.709 213.665 112.520 211.297 C 108.981 207.467 108.294 205.856 106.310 196.745 C 105.084 191.110 104.062 185.476 104.040 184.224 C 104.002 182.061 104.136 182.019 106.750 183.374 C 111.272 185.717 119.000 193.038 119.000 194.978 C 119.000 197.432 121.148 198.074 125.418 196.895 C 128.053 196.167 129.159 195.215 129.653 193.247 C 130.385 190.329 128.263 183.370 124.689 176.970 L 122.500 173.049 133.000 180.482 C 138.775 184.570 143.978 188.323 144.563 188.822 C 149.902 193.379 153.587 191.434 152.443 184.662 C 150.927 175.691 148.820 172.780 138.942 166.015 C 126.782 157.686 126.000 156.840 126.000 152.019 C 126.000 148.607 125.643 147.948 123.500 147.411 C 119.717 146.461 116.526 147.639 112.442 151.490 C 108.615 155.099 108.542 155.547 110.593 162.750 C 111.053 164.368 110.812 165.000 109.733 165.000 C 107.536 165.000 107.098 162.040 107.730 151.458 C 108.040 146.256 108.112 142.000 107.890 142.000 C 107.668 142.000 106.060 141.591 104.316 141.091 C 101.829 140.377 101.021 140.503 100.572 141.672 "/></g>
<g fill="#003F88FF" stroke="#003F88FF">
<path d="M 521.241 167.371 C 520.581 168.819 520.552 170.236 521.162 171.324 C 521.855 172.563 521.691 173.181 520.555 173.617 C 519.644 173.967 519.000 175.412 519.000 177.107 C 519.000 180.295 517.910 180.801 516.000 178.500 C 514.180 176.307 510.000 176.547 510.000 178.845 C 510.000 181.450 506.834 184.000 503.598 184.000 C 501.529 184.000 500.936 184.428 501.188 185.739 C 501.372 186.695 502.418 187.609 503.511 187.771 C 504.605 187.933 507.389 188.552 509.699 189.148 L 513.897 190.231 510.475 193.459 L 507.052 196.687 499.776 194.781 C 486.647 191.343 470.708 187.958 470.172 188.495 C 469.883 188.784 470.314 189.579 471.130 190.260 C 471.946 190.942 473.828 193.160 475.312 195.189 C 477.594 198.310 478.740 198.965 482.755 199.440 C 494.206 200.794 504.572 203.336 508.341 205.715 C 511.788 207.891 512.098 208.366 510.614 209.196 C 508.464 210.400 501.975 209.347 496.149 206.850 C 492.470 205.272 491.122 205.135 488.342 206.052 C 485.572 206.966 483.712 206.784 477.741 205.010 C 473.759 203.827 469.600 202.477 468.500 202.009 C 458.435 197.733 454.911 195.861 451.825 193.151 C 448.708 190.414 448.079 190.200 446.994 191.508 C 445.487 193.323 446.280 199.423 448.677 204.449 C 449.947 207.112 451.392 208.286 454.846 209.463 C 457.327 210.308 460.259 211.000 461.362 211.000 C 464.218 211.000 472.000 214.945 472.000 216.393 C 472.000 217.061 470.516 219.046 468.702 220.804 C 465.014 224.379 460.372 224.999 456.000 222.500 C 448.915 218.450 450.344 222.413 459.334 231.750 C 467.461 240.191 468.605 240.114 477.869 230.500 C 485.430 222.653 487.308 221.845 491.540 224.618 C 494.249 226.393 496.077 225.593 498.147 221.725 C 499.000 220.131 498.604 219.187 495.918 216.415 C 492.773 213.170 492.716 212.971 494.407 211.103 C 495.776 209.590 496.753 209.346 498.832 209.999 C 500.299 210.460 504.200 211.629 507.500 212.597 C 510.800 213.565 514.573 215.177 515.885 216.179 C 519.662 219.063 524.462 218.565 526.982 215.026 C 528.146 213.390 528.965 211.286 528.800 210.351 C 528.563 209.006 530.806 207.863 539.500 204.898 C 554.302 199.848 553.874 200.193 553.716 193.446 C 553.585 187.829 553.574 187.810 549.268 185.786 C 545.321 183.931 545.103 183.641 546.725 182.410 C 547.701 181.670 549.257 181.049 550.182 181.032 C 552.417 180.990 556.000 175.835 556.000 172.663 C 556.000 169.098 553.695 168.739 545.104 170.962 L 537.708 172.876 529.989 168.994 L 522.269 165.113 521.241 167.371 M 534.449 188.344 C 535.852 190.184 537.000 192.364 537.000 193.189 C 537.000 195.575 533.851 197.725 529.250 198.479 C 524.688 199.227 523.724 198.133 526.500 195.357 C 528.596 193.262 528.372 192.192 525.760 191.820 C 522.146 191.304 522.279 188.094 525.946 187.361 C 527.648 187.020 529.284 186.350 529.580 185.871 C 530.556 184.292 531.865 184.957 534.449 188.344 "/></g>
<g fill="#003F88FF" stroke="#003F88FF">
<path d="M 395.205 50.253 C 394.587 50.998 393.113 55.633 391.931 60.554 C 389.014 72.689 385.048 85.560 383.649 87.428 C 382.459 89.018 375.112 90.439 360.000 92.004 C 351.353 92.899 343.907 92.444 340.750 90.826 C 338.074 89.455 334.999 91.574 335.005 94.785 C 335.010 97.706 339.435 103.167 344.384 106.361 C 347.601 108.437 352.420 108.278 366.000 105.649 C 370.125 104.851 373.685 104.375 373.911 104.593 C 375.633 106.250 364.596 113.040 356.056 115.576 C 353.531 116.326 350.573 117.614 349.483 118.438 C 347.680 119.800 348.468 119.939 358.146 119.968 C 367.605 119.996 369.579 119.680 375.842 117.131 C 379.719 115.553 384.153 112.955 385.696 111.358 C 389.270 107.655 393.000 102.386 393.000 101.040 C 393.000 100.468 393.450 100.000 394.000 100.000 C 394.550 100.000 395.000 99.397 395.000 98.659 C 395.000 97.313 400.623 95.759 410.384 94.409 C 416.139 93.612 419.000 91.152 419.000 87.000 C 419.000 84.279 418.698 84.001 415.750 84.015 C 413.963 84.023 410.700 84.679 408.500 85.471 C 406.300 86.264 403.282 86.932 401.794 86.956 L 399.089 87.000 400.569 82.750 C 403.036 75.671 405.058 71.921 408.158 68.677 C 411.757 64.911 411.448 62.866 406.088 55.001 C 403.127 50.656 401.708 49.437 399.335 49.199 C 397.682 49.033 395.824 49.508 395.205 50.253 "/></g>
<g fill="#003F88FF" stroke="#003F88FF">
<path d="M 444.500 462.700 C 439.541 465.378 431.000 472.158 431.000 473.417 C 431.000 474.064 431.690 475.472 432.533 476.547 C 434.174 478.637 445.507 494.356 448.000 498.000 C 448.825 499.206 452.200 503.939 455.500 508.519 C 458.800 513.099 462.158 517.776 462.963 518.913 C 464.415 520.964 464.450 520.956 467.638 517.867 C 469.824 515.747 470.541 514.394 469.883 513.627 C 469.352 513.007 466.198 508.752 462.875 504.171 C 457.066 496.164 456.900 495.768 458.571 493.921 C 460.964 491.278 462.884 491.509 466.452 494.872 C 468.129 496.452 472.380 500.034 475.901 502.833 L 482.302 507.921 485.151 505.892 C 486.718 504.777 487.998 503.557 487.996 503.182 C 487.994 502.807 485.182 500.257 481.746 497.515 C 478.311 494.774 475.275 492.283 475.000 491.980 C 474.725 491.677 472.967 490.254 471.093 488.817 C 467.700 486.214 467.688 486.174 467.909 478.598 C 468.096 472.197 467.790 470.514 465.981 467.974 C 461.513 461.698 451.092 459.140 444.500 462.700 M 454.867 470.739 C 460.805 474.146 461.469 479.300 456.632 484.429 C 452.583 488.722 451.577 488.835 449.296 485.250 C 448.334 483.738 447.308 482.275 447.017 482.000 C 445.837 480.884 441.000 474.093 441.000 473.552 C 441.000 472.430 447.523 469.007 449.669 469.004 C 450.862 469.002 453.201 469.782 454.867 470.739 "/></g>
<g fill="#003F88FF" stroke="#003F88FF">
<path d="M 186.148 515.971 C 173.118 541.939 173.089 542.012 175.291 543.425 C 180.214 546.583 180.537 546.266 187.973 531.033 C 195.696 515.210 197.575 512.393 196.664 518.000 C 195.817 523.218 192.929 552.273 193.235 552.498 C 194.225 553.224 200.368 555.960 200.547 555.754 C 200.670 555.614 206.663 543.575 213.866 529.000 L 226.961 502.500 223.841 501.190 C 222.124 500.470 220.394 500.245 219.996 500.690 C 219.194 501.587 213.366 512.218 208.588 521.500 C 205.144 528.191 203.399 530.042 203.692 526.695 C 206.639 492.959 206.586 492.137 201.356 490.574 C 199.402 489.989 198.058 492.234 186.148 515.971 "/></g>
<g fill="#003F88FF" stroke="#003F88FF">
<path d="M 346.197 509.857 C 345.151 510.521 345.101 512.709 345.947 520.948 C 346.526 526.593 346.971 532.627 346.937 534.356 C 346.881 537.091 346.750 537.240 345.929 535.500 C 345.410 534.400 343.976 531.897 342.742 529.939 C 341.509 527.980 338.536 523.143 336.136 519.189 C 331.633 511.770 330.649 511.184 325.163 512.653 C 322.848 513.273 322.832 513.375 323.462 523.889 C 323.811 529.725 324.514 538.550 325.024 543.500 C 325.534 548.450 326.229 556.450 326.568 561.278 L 327.184 570.056 330.842 569.395 C 332.854 569.032 334.549 568.682 334.608 568.617 C 334.711 568.506 334.000 558.322 332.505 538.500 C 331.703 527.871 330.918 526.978 343.063 550.500 C 349.445 562.861 351.221 565.546 353.154 565.759 C 357.207 566.207 357.725 565.062 356.897 557.500 C 355.338 543.264 352.244 517.780 351.403 512.250 C 350.902 508.950 349.003 508.078 346.197 509.857 "/></g>
<g fill="#003F88FF" stroke="#003F88FF">
<path d="M 263.313 458.041 C 259.790 459.128 256.000 463.283 256.000 466.058 C 256.000 467.041 257.322 469.168 258.937 470.784 L 261.875 473.721 258.099 474.852 C 252.907 476.408 250.099 481.411 251.934 485.840 C 253.443 489.483 256.474 491.632 262.820 493.558 C 269.387 495.551 276.367 495.363 280.857 493.073 C 285.363 490.774 286.610 489.400 287.534 485.720 C 288.121 483.380 287.659 482.415 284.545 479.478 L 280.861 476.003 283.531 474.988 C 286.861 473.722 289.930 470.139 289.944 467.500 C 289.959 464.837 287.223 461.579 283.327 459.622 C 279.400 457.650 267.601 456.718 263.313 458.041 M 271.628 477.596 C 276.417 479.570 280.000 482.782 280.000 485.102 C 280.000 487.738 275.206 491.000 271.333 491.000 C 261.036 491.000 255.974 483.312 262.758 477.976 C 265.796 475.586 266.661 475.549 271.628 477.596 M 280.224 463.703 C 282.710 465.953 282.140 469.827 278.976 472.178 C 276.797 473.797 275.976 473.892 272.976 472.874 C 264.330 469.939 261.599 465.077 267.000 462.234 C 270.164 460.568 277.683 461.403 280.224 463.703 "/></g>
<g fill="#003F88FF" stroke="#003F88FF">
<path d="M 157.803 500.750 C 136.224 522.403 136.467 522.039 141.766 524.875 C 143.673 525.895 144.619 525.352 150.466 519.883 L 157.026 513.746 161.013 516.509 C 163.206 518.029 165.000 519.637 165.000 520.083 C 165.000 520.529 163.935 522.897 162.633 525.345 C 161.332 527.793 159.811 531.103 159.255 532.700 C 158.334 535.341 158.509 535.756 161.202 537.301 C 162.830 538.236 164.512 539.000 164.939 539.000 C 165.366 539.000 167.418 534.838 169.499 529.750 C 173.700 519.478 176.634 512.523 178.039 509.500 C 179.353 506.675 188.000 484.887 188.000 484.401 C 188.000 484.181 187.325 484.000 186.500 484.000 C 185.675 484.000 184.996 483.663 184.992 483.250 C 184.985 482.555 180.307 480.000 179.042 480.000 C 178.734 480.000 169.177 489.338 157.803 500.750 M 175.452 496.596 C 172.643 503.563 169.039 511.000 168.472 511.000 C 168.168 511.000 166.605 510.028 164.998 508.841 L 162.078 506.681 169.213 499.348 C 173.138 495.315 176.501 492.168 176.688 492.354 C 176.874 492.541 176.318 494.450 175.452 496.596 "/></g>
<g fill="#003F88FF" stroke="#003F88FF">
<path d="M 97.500 390.427 C 95.300 391.649 84.142 397.438 72.705 403.293 C 61.267 409.148 51.481 414.202 50.958 414.526 C 49.788 415.249 52.598 421.000 54.121 421.000 C 54.710 421.000 56.386 420.172 57.846 419.161 C 60.511 417.314 71.656 411.564 75.623 409.989 C 77.834 409.111 77.485 408.612 84.217 422.266 C 84.855 423.561 84.609 424.233 83.294 424.784 C 82.307 425.198 76.922 427.877 71.326 430.739 L 61.152 435.942 62.295 438.971 C 63.340 441.738 66.328 443.136 67.167 441.250 C 67.350 440.838 72.225 438.130 78.000 435.233 C 83.775 432.335 94.823 426.706 102.550 422.722 L 116.600 415.480 114.780 412.364 L 112.961 409.248 105.230 413.263 C 100.979 415.472 96.268 417.921 94.763 418.706 C 93.257 419.491 91.598 419.870 91.076 419.547 C 90.059 418.918 83.690 405.938 84.197 405.527 C 84.364 405.392 89.256 402.836 95.069 399.848 L 105.638 394.414 104.069 391.230 C 102.246 387.529 102.635 387.577 97.500 390.427 "/></g>
<g fill="#003F88FF" stroke="#003F88FF">
<path d="M 235.823 507.668 C 232.258 508.269 224.397 515.302 221.966 520.066 C 215.393 532.950 213.280 547.708 216.972 554.945 C 220.122 561.119 223.519 563.217 229.737 562.829 C 234.021 562.561 235.002 562.796 235.001 564.089 C 235.001 564.964 236.095 566.178 237.433 566.787 C 239.806 567.869 239.920 567.718 242.047 560.698 C 243.247 556.739 245.133 550.636 246.238 547.135 C 247.912 541.832 248.018 540.626 246.874 539.901 C 246.118 539.422 244.975 539.024 244.333 539.015 C 243.691 539.007 241.040 538.089 238.441 536.975 C 235.843 535.861 233.560 535.106 233.369 535.298 C 233.177 535.489 232.752 536.991 232.423 538.634 C 231.866 541.421 232.101 541.713 235.913 542.971 C 238.161 543.713 240.000 544.713 240.000 545.192 C 240.000 546.851 236.917 553.434 235.307 555.213 C 232.884 557.890 227.820 557.502 224.924 554.417 C 220.548 549.754 222.158 537.219 228.995 522.720 C 231.799 516.773 234.260 515.000 239.709 515.000 C 243.689 515.000 244.078 515.250 245.551 518.750 C 246.420 520.813 246.887 523.738 246.590 525.250 C 246.074 527.879 246.224 528.000 250.025 528.000 C 253.953 528.000 254.000 527.955 253.994 524.250 C 253.976 512.175 246.977 505.787 235.823 507.668 "/></g>
<g fill="#003F88FF" stroke="#003F88FF">
<path d="M 111.919 423.271 C 108.300 425.597 97.416 432.420 87.734 438.433 L 70.130 449.367 74.315 455.427 C 78.427 461.381 79.504 462.859 81.500 465.285 C 82.050 465.953 83.799 468.413 85.386 470.750 C 86.973 473.088 88.611 475.000 89.025 475.000 C 89.439 475.000 90.786 474.184 92.016 473.188 L 94.255 471.375 88.156 462.938 C 84.801 458.297 81.594 453.956 81.028 453.292 C 79.631 451.651 79.719 451.328 81.750 450.646 C 83.451 450.075 86.990 448.010 88.000 447.000 C 88.929 446.071 92.485 444.002 94.993 442.930 C 97.866 441.702 98.821 442.610 106.386 453.750 C 107.973 456.088 109.415 458.000 109.589 458.000 C 110.787 458.000 115.000 455.515 115.000 454.808 C 115.000 454.329 112.525 450.648 109.500 446.629 C 106.475 442.610 104.000 438.820 104.000 438.206 C 104.000 437.592 107.168 435.207 111.039 432.907 C 118.959 428.203 117.776 427.867 123.707 436.500 C 131.155 447.342 130.885 447.111 134.127 445.435 C 136.060 444.435 136.791 443.490 136.277 442.655 C 134.050 439.028 119.428 419.049 119.000 419.046 C 118.725 419.044 115.539 420.946 111.919 423.271 "/></g>
<g fill="#003F88FF" stroke="#003F88FF">
<path d="M 286.661 522.674 C 285.392 541.844 285.840 559.597 287.692 563.481 C 292.528 573.622 310.994 573.716 315.847 563.625 C 317.352 560.494 318.906 541.108 318.963 524.750 L 319.000 514.000 315.651 514.000 L 312.302 514.000 311.656 523.750 C 311.301 529.113 311.008 538.607 311.005 544.849 C 310.999 558.016 309.633 562.235 304.834 563.908 C 300.719 565.343 295.362 563.079 293.921 559.298 C 293.203 557.414 293.088 549.562 293.568 535.250 C 294.166 517.433 294.056 513.998 292.891 513.986 C 292.126 513.979 290.558 513.720 289.406 513.410 C 287.414 512.876 287.280 513.329 286.661 522.674 "/></g>
<g fill="#003F88FF" stroke="#003F88FF">
<path d="M 469.125 437.651 C 464.806 439.532 461.000 446.249 461.000 451.990 C 461.000 458.414 464.303 463.804 469.702 466.193 C 475.129 468.593 478.180 468.274 486.500 464.437 C 490.245 462.710 494.317 461.638 497.335 461.585 C 501.449 461.513 502.531 461.919 504.585 464.306 C 507.891 468.147 507.826 473.265 504.428 476.663 C 502.158 478.933 501.229 479.184 496.541 478.795 C 491.242 478.355 491.224 478.364 490.189 481.737 C 488.921 485.867 489.878 486.432 498.178 486.453 C 503.043 486.465 504.403 486.024 507.678 483.377 C 510.104 481.416 512.172 478.501 513.340 475.394 C 515.074 470.780 515.086 470.200 513.544 465.266 C 511.781 459.625 508.259 456.200 502.101 454.138 C 496.677 452.322 493.532 452.771 485.568 456.500 C 481.457 458.425 476.807 460.000 475.235 460.000 C 471.021 460.000 468.000 456.708 468.000 452.116 C 468.000 446.763 470.755 444.500 477.272 444.500 C 481.932 444.500 482.408 444.277 483.271 441.688 C 483.786 440.141 483.919 438.586 483.566 438.232 C 482.705 437.371 470.862 436.895 469.125 437.651 "/></g>
<g fill="#003F88FF" stroke="#003F88FF">
<path d="M 394.301 492.198 C 392.649 492.996 392.212 493.912 392.544 495.880 C 392.986 498.503 394.138 506.631 396.460 523.500 C 397.141 528.450 397.596 532.633 397.471 532.795 C 397.345 532.958 395.990 530.933 394.458 528.295 C 392.926 525.658 391.409 523.275 391.087 523.000 C 390.764 522.725 389.967 521.600 389.315 520.500 C 388.385 518.929 379.940 505.531 376.927 500.846 C 376.612 500.355 374.662 500.661 372.593 501.525 L 368.833 503.097 370.626 505.798 C 371.612 507.284 375.221 513.000 378.647 518.500 C 382.072 524.000 385.263 528.950 385.738 529.500 C 386.212 530.050 386.921 531.175 387.311 532.000 C 387.702 532.825 388.805 534.705 389.761 536.178 C 390.717 537.652 393.479 542.152 395.899 546.178 C 398.318 550.205 400.419 553.651 400.568 553.835 C 400.716 554.020 402.449 553.406 404.419 552.472 C 408.361 550.601 408.412 550.367 406.933 541.000 C 403.772 520.986 402.934 515.565 401.568 506.300 C 399.153 489.927 399.122 489.868 394.301 492.198 "/></g>
<g fill="#003F88FF" stroke="#003F88FF">
<path d="M 424.473 476.343 C 423.388 477.081 418.000 480.045 412.500 482.929 C 407.000 485.814 402.356 488.316 402.180 488.490 C 401.824 488.842 408.259 500.295 417.354 515.500 C 420.644 521.000 424.675 527.975 426.312 531.000 C 431.057 539.769 430.259 539.566 439.706 534.416 C 444.350 531.885 450.367 528.625 453.075 527.172 C 455.784 525.719 457.990 524.298 457.978 524.015 C 457.966 523.732 457.139 522.438 456.141 521.140 L 454.326 518.780 446.413 523.005 C 442.061 525.329 438.073 527.628 437.550 528.115 C 435.236 530.270 433.190 528.607 428.698 520.923 C 426.102 516.480 424.170 512.542 424.405 512.173 C 424.640 511.803 428.634 509.518 433.280 507.095 L 441.729 502.690 440.115 499.851 C 439.227 498.290 438.275 497.011 438.000 497.009 C 437.725 497.006 433.653 499.163 428.950 501.800 L 420.400 506.596 415.785 498.861 L 411.170 491.125 414.835 489.270 C 416.851 488.249 421.293 485.895 424.707 484.039 L 430.914 480.663 429.241 477.832 C 427.323 474.585 427.139 474.527 424.473 476.343 "/></g>
<g fill="#003F88FF" stroke="#003F88FF">
<path d="M 214.226 94.250 C 213.133 95.592 211.718 100.037 209.426 109.325 C 207.537 116.978 204.219 123.765 194.728 139.390 C 190.052 147.088 187.019 153.130 187.199 154.390 C 187.647 157.533 196.442 162.071 201.464 161.752 C 206.214 161.450 205.814 162.321 211.915 139.000 C 212.562 136.525 213.513 132.925 214.028 131.000 C 214.543 129.075 215.231 123.000 215.557 117.500 C 215.928 111.250 216.937 105.292 218.248 101.613 C 220.289 95.887 220.295 95.689 218.482 94.363 C 216.180 92.680 215.520 92.662 214.226 94.250 "/></g>
<g fill="#003F88FF" stroke="#003F88FF">
<path d="M 320.500 457.615 C 313.036 459.479 309.000 464.018 309.000 470.549 C 309.000 478.221 319.453 482.835 330.899 480.216 C 333.428 479.637 335.651 479.318 335.839 479.506 C 336.773 480.440 333.099 485.695 330.102 487.713 C 327.439 489.506 325.316 490.000 320.283 490.000 C 314.195 490.000 313.878 490.117 314.180 492.250 C 314.473 494.309 315.009 494.493 320.500 494.414 C 335.178 494.204 343.220 487.214 343.410 474.500 C 343.524 466.896 341.720 462.622 337.293 460.010 C 333.826 457.965 324.453 456.628 320.500 457.615 M 332.594 463.428 C 335.398 465.392 337.695 472.458 336.138 474.333 C 333.371 477.667 319.908 476.936 317.215 473.305 C 315.609 471.140 316.335 466.392 318.667 463.816 C 320.708 461.560 329.575 461.313 332.594 463.428 "/></g>
<g fill="#003F88FF" stroke="#003F88FF">
<path d="M 85.397 354.285 C 83.041 355.645 83.051 355.709 87.091 365.680 C 90.963 375.237 90.921 376.449 86.750 375.547 C 83.457 374.835 73.325 373.305 53.683 370.552 C 47.734 369.718 42.399 368.746 41.827 368.393 C 40.333 367.470 32.842 370.139 33.321 371.423 C 33.542 372.016 36.108 378.913 39.024 386.750 C 41.940 394.588 44.815 400.984 45.413 400.965 C 46.011 400.945 47.458 400.383 48.628 399.715 C 50.753 398.502 50.750 398.484 46.406 387.055 C 44.014 380.761 42.173 375.494 42.316 375.351 C 42.574 375.093 49.380 376.061 61.250 378.044 C 64.688 378.619 71.775 379.696 77.000 380.438 C 82.225 381.181 87.778 382.119 89.339 382.525 C 91.012 382.959 93.783 382.732 96.089 381.971 C 100.435 380.536 100.344 380.649 99.117 378.236 C 98.173 376.378 95.520 369.356 91.944 359.250 C 89.654 352.779 88.941 352.239 85.397 354.285 "/></g>
<g fill="#003F88FF" stroke="#003F88FF">
<path d="M 514.507 351.329 C 512.539 356.038 512.588 356.491 515.250 358.294 C 516.488 359.132 520.862 363.008 524.972 366.909 L 532.444 374.000 518.338 374.000 L 504.233 374.000 503.708 376.747 C 503.412 378.298 503.687 379.816 504.341 380.232 C 504.979 380.638 513.825 380.980 524.000 380.992 L 542.500 381.015 551.500 384.427 C 556.450 386.303 560.806 387.537 561.179 387.169 C 561.553 386.801 562.144 385.342 562.493 383.927 C 563.085 381.527 562.672 381.163 556.314 378.488 C 544.042 373.326 541.950 371.781 521.284 352.611 L 516.014 347.723 514.507 351.329 "/></g>
<g fill="#003F88FF" stroke="#003F88FF">
<path d="M 241.500 50.163 C 240.400 50.768 237.250 53.419 234.500 56.053 C 231.750 58.686 228.263 61.981 226.750 63.375 C 223.289 66.564 223.310 67.463 226.923 71.077 C 229.184 73.338 230.757 74.000 233.864 74.000 C 236.074 74.000 238.165 73.543 238.510 72.984 C 239.808 70.884 241.000 73.286 241.000 78.000 C 241.000 85.597 242.325 85.352 249.113 76.500 C 253.080 71.327 254.872 66.945 255.619 60.584 C 256.175 55.855 255.985 55.195 253.210 52.225 C 249.985 48.773 245.467 47.977 241.500 50.163 "/></g>
<g fill="#003F88FF" stroke="#003F88FF">
<path d="M 131.839 473.522 C 116.445 488.747 114.901 490.000 111.543 490.000 C 106.452 490.000 102.647 486.145 103.186 481.533 C 103.519 478.683 103.136 477.921 100.634 476.443 C 97.820 474.780 97.631 474.785 96.345 476.543 C 92.849 481.324 96.829 491.998 103.500 495.729 C 109.172 498.902 114.561 498.689 120.054 495.074 C 122.499 493.465 131.355 485.442 139.733 477.245 L 154.966 462.341 152.178 459.671 C 150.645 458.202 149.190 457.010 148.945 457.022 C 148.700 457.034 141.002 464.459 131.839 473.522 "/></g>
<g fill="#003F88FF" stroke="#003F88FF">
<path d="M 499.801 385.816 C 498.381 388.272 491.439 401.103 488.381 406.922 C 487.226 409.120 487.345 409.466 489.669 410.672 C 493.420 412.618 493.785 412.436 496.131 407.445 C 497.652 404.208 498.712 403.059 499.792 403.474 C 500.628 403.794 506.891 407.419 513.709 411.528 C 520.528 415.638 526.533 419.000 527.053 419.000 C 527.574 419.000 528.000 419.398 528.000 419.883 C 528.000 420.369 528.788 421.024 529.750 421.339 C 531.401 421.880 537.812 425.464 542.715 428.589 C 543.933 429.365 545.116 430.000 545.343 430.000 C 545.942 430.000 548.343 423.992 547.885 423.641 C 545.977 422.179 531.546 414.000 530.873 414.000 C 530.393 414.000 530.000 413.550 530.000 413.000 C 530.000 412.450 529.565 412.000 529.034 412.000 C 527.303 412.000 503.832 397.725 503.305 396.352 C 503.023 395.618 503.739 393.412 504.896 391.451 C 507.611 386.850 507.557 386.340 504.177 384.591 C 501.483 383.198 501.282 383.255 499.801 385.816 "/></g>
<g fill="#003F88FF" stroke="#003F88FF">
<path d="M 156.934 470.168 C 155.084 472.551 152.785 475.400 151.826 476.500 C 150.111 478.466 146.930 482.370 140.000 491.013 C 138.075 493.414 134.925 497.274 133.000 499.592 C 131.075 501.910 128.252 505.309 126.727 507.145 L 123.954 510.484 127.181 513.302 L 130.408 516.119 132.954 512.913 C 134.354 511.150 137.075 507.807 139.000 505.484 C 140.925 503.162 143.183 500.415 144.018 499.381 C 154.107 486.881 159.411 480.412 159.908 480.000 C 160.240 479.725 161.804 477.767 163.384 475.648 L 166.257 471.796 163.278 468.816 L 160.298 465.836 156.934 470.168 "/></g>
<g fill="#003F88FF" stroke="#003F88FF">
<path d="M 358.721 506.310 C 356.787 507.073 356.137 507.877 356.583 508.953 C 357.311 510.709 359.517 518.101 361.521 525.500 C 362.266 528.250 363.606 532.975 364.500 536.000 C 366.508 542.796 368.767 551.065 370.238 557.000 C 370.851 559.475 371.430 561.618 371.523 561.763 C 371.616 561.908 373.343 561.337 375.361 560.494 C 379.133 558.917 379.368 557.895 377.309 552.000 C 376.700 550.255 371.443 531.807 369.473 524.500 C 368.227 519.877 365.615 510.887 364.316 506.750 C 363.702 504.792 362.754 504.718 358.721 506.310 "/></g>
<g fill="#003F88FF" stroke="#003F88FF">
<path d="M 480.395 420.757 L 478.290 423.389 502.795 438.694 C 516.273 447.112 527.570 453.986 527.900 453.969 C 528.666 453.928 532.313 448.956 531.848 448.586 C 531.005 447.917 482.809 418.006 482.663 418.062 C 482.573 418.097 481.553 419.309 480.395 420.757 "/></g>
<g fill="#003F88FF" stroke="#003F88FF">
<path d="M 372.500 442.605 C 367.000 445.598 361.312 448.513 359.859 449.083 C 357.922 449.843 357.355 450.640 357.730 452.075 C 358.011 453.151 358.527 454.208 358.877 454.424 C 359.226 454.640 364.006 452.649 369.500 450.000 C 374.994 447.351 379.888 445.431 380.377 445.733 C 380.884 446.046 380.959 453.519 380.552 463.141 L 379.839 480.000 382.821 478.288 L 385.803 476.577 386.508 459.538 C 387.345 439.315 387.187 437.558 384.500 437.332 C 383.400 437.240 378.000 439.613 372.500 442.605 "/></g>
<g fill="#003F88FF" stroke="#003F88FF">
<path d="M 250.176 81.411 C 247.054 84.386 242.475 87.881 240.000 89.176 C 236.239 91.143 235.500 92.007 235.500 94.436 C 235.500 96.872 236.227 97.713 240.000 99.643 C 245.748 102.582 248.164 102.574 251.694 99.604 C 257.449 94.761 261.975 81.085 259.007 77.508 C 257.103 75.214 256.306 75.567 250.176 81.411 "/></g>
<g fill="#003F88FF" stroke="#003F88FF">
<path d="M 398.094 119.906 C 395.757 122.243 395.670 122.874 396.934 128.319 C 397.422 130.420 397.449 133.434 396.995 135.017 C 395.973 138.579 397.405 139.976 402.822 140.703 C 407.691 141.356 413.278 138.880 414.883 135.358 C 415.812 133.319 415.698 131.718 414.313 127.324 C 412.452 121.421 410.451 119.738 403.809 118.492 C 400.892 117.945 399.780 118.220 398.094 119.906 "/></g>
<g fill="#003F88FF" stroke="#003F88FF">
<path d="M 217.593 442.619 C 216.760 444.790 216.648 444.619 220.441 446.963 L 223.881 449.090 218.263 458.795 C 215.173 464.133 212.519 468.668 212.365 468.874 C 212.072 469.266 211.094 468.832 207.017 466.502 C 204.844 465.260 204.426 465.275 203.675 466.616 C 203.203 467.460 202.970 468.275 203.158 468.427 C 203.346 468.579 207.887 471.441 213.250 474.786 C 222.318 480.443 223.071 480.736 224.017 478.969 C 224.865 477.384 224.544 476.816 222.080 475.541 C 217.816 473.336 217.641 472.528 220.464 468.057 C 221.859 465.848 223.000 463.822 223.000 463.555 C 223.000 463.288 225.461 459.013 228.468 454.053 C 233.481 445.786 233.784 444.955 232.108 444.058 C 231.103 443.520 228.652 443.345 226.660 443.668 C 224.201 444.067 222.260 443.745 220.612 442.665 C 218.434 441.238 218.124 441.233 217.593 442.619 "/></g>
<g fill="#003F88FF" stroke="#003F88FF">
<path d="M 500.220 154.250 C 499.657 154.938 498.655 157.523 497.993 159.995 C 497.332 162.467 495.637 166.517 494.225 168.995 C 492.814 171.473 490.757 175.107 489.654 177.071 C 486.851 182.061 487.866 184.000 493.282 184.000 C 498.676 184.000 501.996 180.842 504.402 173.418 C 506.399 167.258 506.099 155.309 503.913 153.925 C 502.017 152.725 501.428 152.777 500.220 154.250 "/></g>
<g fill="#003F88FF" stroke="#003F88FF">
<path d="M 188.117 87.883 C 186.953 89.047 186.000 91.015 186.000 92.254 C 186.000 95.338 193.148 107.405 195.210 107.802 C 196.130 107.979 198.698 106.302 200.939 104.061 C 204.431 100.569 205.000 99.396 205.000 95.688 C 205.000 92.011 204.536 91.033 201.852 89.049 C 197.331 85.706 190.844 85.156 188.117 87.883 "/></g>
<g fill="#003F88FF" stroke="#003F88FF">
<path d="M 185.910 58.168 C 184.278 61.217 185.848 67.757 189.102 71.463 C 190.696 73.279 192.000 75.717 192.000 76.882 C 192.000 79.678 193.407 79.554 197.551 76.393 C 202.083 72.936 205.214 67.714 204.818 64.271 C 204.569 62.096 203.532 61.045 200.000 59.384 C 197.525 58.221 193.581 57.025 191.235 56.727 C 187.680 56.276 186.794 56.516 185.910 58.168 "/></g>
<g fill="#003F88FF" stroke="#003F88FF">
<path d="M 43.698 201.636 C 42.159 203.175 43.146 208.021 45.591 210.926 C 47.343 213.008 49.434 214.206 52.045 214.623 C 54.170 214.963 56.673 216.087 57.609 217.120 C 58.545 218.154 59.679 219.000 60.129 219.000 C 61.676 219.000 64.043 213.014 64.234 208.617 C 64.518 202.086 62.868 200.638 56.039 201.428 C 48.055 202.351 47.660 202.359 45.948 201.613 C 45.094 201.242 44.082 201.252 43.698 201.636 "/></g>
<g fill="#003F88FF" stroke="#003F88FF">
<path d="M 66.500 220.491 C 65.950 220.675 64.263 221.098 62.750 221.432 C 57.121 222.673 60.586 228.791 68.803 232.117 C 71.936 233.385 75.256 235.340 76.179 236.461 C 78.764 239.600 80.204 237.206 80.363 229.507 C 80.477 223.963 80.173 222.600 78.559 221.420 C 76.846 220.167 69.230 219.581 66.500 220.491 "/></g>
<g fill="#FFFFFFFF" stroke="#FFFFFFFF">
<path d="M 320.500 463.195 C 317.778 464.739 317.033 466.024 317.015 469.211 C 316.997 472.393 320.057 475.583 323.830 476.316 C 325.298 476.601 328.681 476.334 331.347 475.723 L 336.194 474.612 335.579 470.556 C 334.776 465.260 331.176 461.989 326.194 462.030 C 324.162 462.047 321.600 462.571 320.500 463.195 "/></g>
<g fill="#FFFFFFFF" stroke="#FFFFFFFF">
<path d="M 262.646 478.452 C 256.868 483.807 261.113 490.000 270.563 490.000 C 280.503 490.000 282.166 483.715 273.500 478.907 C 267.263 475.447 265.948 475.392 262.646 478.452 "/></g>
<g fill="#FFFFFFFF" stroke="#FFFFFFFF">
<path d="M 445.222 471.114 L 440.943 473.237 443.672 476.869 C 449.608 484.771 451.539 487.000 452.445 487.000 C 452.965 487.000 454.653 485.791 456.195 484.313 C 459.957 480.709 460.022 475.851 456.354 472.452 C 454.899 471.104 453.360 470.000 452.936 470.000 C 452.511 470.000 451.564 469.773 450.832 469.495 C 450.099 469.217 447.575 469.946 445.222 471.114 "/></g>
<g fill="#FFFFFFFF" stroke="#FFFFFFFF">
<path d="M 267.750 462.162 C 262.503 464.079 264.474 468.622 272.080 472.146 C 275.369 473.670 275.834 473.671 278.324 472.160 C 283.312 469.134 282.948 465.299 277.422 462.664 C 273.509 460.798 271.737 460.706 267.750 462.162 "/></g>
<g fill="#003F88FF" stroke="#003F88FF">
<path d="M 477.090 168.992 C 472.266 174.811 471.707 177.712 475.011 179.775 C 478.585 182.007 484.000 177.110 484.000 171.648 C 484.000 165.412 481.010 164.263 477.090 168.992 "/></g>
<g fill="#FFFFFFFF" stroke="#FFFFFFFF">
<path d="M 526.204 187.591 C 522.776 189.101 522.695 191.000 526.059 191.000 C 528.265 191.000 528.574 193.108 526.788 195.968 C 525.042 198.764 526.228 199.312 530.962 197.893 C 536.585 196.209 537.555 194.120 534.690 189.868 C 532.063 185.969 530.710 185.607 526.204 187.591 "/></g>
<g fill="#FFFFFFFF" stroke="#FFFFFFFF">
<path d="M 169.310 499.786 L 163.119 506.370 165.747 508.628 C 168.298 510.820 170.000 510.923 170.000 508.886 C 170.000 507.937 172.849 501.045 175.223 496.252 C 177.268 492.122 175.553 493.147 169.310 499.786 "/></g>
<g fill="#FFFFFFFF" stroke="#FFFFFFFF">
<path d="M 107.004 158.816 C 106.999 161.571 108.680 165.000 110.035 165.000 C 111.517 165.000 111.194 163.367 109.004 159.774 C 107.191 156.802 107.007 156.713 107.004 158.816 "/></g>
</svg>
